<svg xmlns="http://www.w3.org/2000/svg" stroke-linejoin="round" stroke-linecap="round" viewBox="0.75 0.75 798.5 308.8800048828125" height="308.8800048828125" width="798.5" version="1.2">&#xa;<g id="worldmap">&#xa;<path stroke-width="0.5" stroke="#223654" fill="#223654" fill-rule="evenodd" d="M 216.28 168.42 215.74 167.8 215.66 167.28 214.39 167.22 214.6 166.28 214.03 165.75 212.34 164.93 212.22 164.37 211.33 165.07 210.89 164.56 210.2 164.36 209.74 163.26 210.1 162.49 209.93 161.79 209.45 161.19 208.33 160.29 207.69 159.37 205.67 157.71 206.4 157.54 206.07 156.71 205.35 156.61 205.09 157.1 203.8 157.09 202.1 156.44 200.93 156.25 200.29 155.86 199.15 155.44 197.96 155.44 196.47 154.77 195.55 154.07 194.27 152.76 191.82 150.73 190.8 150.21 190.17 150.4 189.64 149.92 188.39 150.9 186.73 151.53 186.07 151.62 184.57 151.05 183.31 150.92 182.46 150.39 181.61 150.17 181.08 149.66 179.02 149.25 178.28 148.81 176.45 148.18 174.79 147.18 174.24 146.58 172.35 146.27 170.7 145.69 169.66 144.58 167.39 143.51 166.18 142.03 165.77 141.12 166.67 140.7 166.16 140.26 166.72 139.5 166.79 138.67 166.29 138.39 165.81 137.57 165.82 136.82 165.49 136.15 164.14 134.9 162.96 133.38 161.65 132.31 160.71 131.75 159.77 130.47 158.32 129.83 157.53 129.28 157.44 128.61 157.94 128 157.31 127.1 156.71 127.12 156.29 126.29 155.11 125.75 154.8 125.01 154.99 124.55 153.68 124.32 152.9 123.39 152.44 123.2 151.37 121.99 151.24 121.43 150.1 119.84 149.27 118.05 149.41 117.2 148.13 116.83 147.42 116.2 146.97 116.47 145.44 115.83 145.35 117.25 145.9 118.69 145.86 119.28 146.47 120.19 147.84 121.21 148.41 122.19 149.06 122.48 149.31 123.11 149.8 123.31 150.11 124.63 151 125.3 151.71 126.54 152.69 127.11 153.21 128.4 153.3 129.15 153.87 129.73 154.67 131.36 154.54 131.81 154.95 132.64 156.12 132.73 157.45 134.26 157.37 134.85 156.34 135.58 155.98 135.32 155.36 133.99 154.77 133.69 153.87 132.88 153.02 132.38 151.57 131.25 151.61 129.81 151.35 128.87 150.9 128.21 149.47 127.39 149.06 126.78 148.19 127.08 147.65 126.54 146.31 125.98 146.1 125.51 145.1 124.83 146.63 124.53 147.19 123.3 146.98 122.9 145.1 121.18 143.59 120.35 143.28 119.14 142.88 118.89 142.73 118.03 141.4 116.34 141.49 115.71 140.99 115.39 140.37 114.2 139.61 112.51 138.25 111.56 137.52 111.51 137.31 110.91 135.9 110.7 134.87 110.02 132.93 109.9 132.57 109.66 132.6 108.56 132.09 107.92 129.84 105.78 130.03 104.89 128.69 103.84 128.53 102.44 127.42 101.86 127.38 101.46 125.8 100.07 125.39 97.95 124.42 97.09 124.31 96.56 124.84 95.5 124.98 94.58 124.35 92.94 123.94 91.41 124.8 89.46 125 87.06 125.29 85.28 125.25 84.03 124.97 83.73 125.38 82.88 124.97 82.69 124.3 80.67 123.76 80.12 123.73 79.08 125.19 79.54 127.66 79.71 128.11 80.18 129.03 79.89 127.82 77.71 127.24 77.71 126.61 76.68 125.45 76.63 124.82 75.94 123.4 75.43 122.79 74.55 119.8 74.3 119.82 73.69 118.36 73.56 116.91 72.93 117.05 72.2 116.04 71.51 115.47 70.69 116.03 69.14 115.26 69.1 114.82 68.29 113.42 67.96 112.8 68.27 111.09 67.22 111.74 66.32 110.88 65.68 112.08 64.03 111.63 63 111.78 62.43 111.75 63.74 111.36 64.34 110.56 64.91 109.95 64.82 109.51 64.05 109.94 63.61 109.8 62.76 108.98 62.15 106.9 62.8 107.75 61.82 105.6 59.87 104.15 59.58 103.95 58.42 102.83 57.28 101.25 56.74 100.08 57.18 98.84 56.47 97.24 57.2 95.11 56.46 93.32 55.34 89.19 53.92 87.8 53.87 85.96 53.38 83.14 53.1 81.23 53.28 78.8 52.57 76.59 52.25 74.43 51.09 71.17 51.42 71.5 52.94 70.98 53.34 68.76 53.31 67.06 54.27 66.21 54.28 65.37 54.99 63.65 55.11 63.4 54.63 63.66 53.34 64.28 52.86 64.57 51.67 66.52 51.04 66.14 50.43 63.66 51.29 63.62 51.64 61.62 52.78 61.38 53.49 60.61 53.59 58.44 54.72 58.35 55.26 60.11 55.84 58.59 56.65 58.09 57.39 56.4 57.71 53.14 59.24 53.15 59.73 50.7 60.77 48.85 61.21 49.16 61.74 46.39 62.6 45.42 62.63 44.31 63.16 42.9 63.5 41.47 63.53 40.74 64.09 38.98 64.5 38.77 63.99 40.55 62.8 42.64 62.13 43.45 62.68 44.66 61.48 46.92 60.65 49.06 59.3 50.64 58.63 50.82 56.81 52.04 56.11 51.67 55.8 49.72 56.33 48.65 55.86 47.37 56.7 46.06 55.73 44.53 55.42 42.32 56.26 41.44 56.39 41.36 55.29 40.85 54.9 41.28 54.22 40.36 52.92 38.2 53.65 36.67 53.74 35 52.64 33.47 52.11 34.68 51.34 33 50.87 31.86 49.32 33.82 47.83 35.56 46.19 37.89 46.56 40.96 45.66 42.9 45.43 43.61 44.85 43.14 43.89 43.27 43.16 42.7 42.4 41.43 42.64 39.11 43.62 37.1 43.14 34.47 43.42 31.72 43.15 30.2 42.02 30.56 41.48 28.92 41.29 27.4 40.77 29.65 40.28 30.38 39.9 34.97 38.78 36.96 38.84 36.39 39.53 37.14 39.83 41.31 39.89 41.88 39.46 44.82 39.08 43.42 38.53 41.22 38.46 40.98 37.69 38.68 37.74 37.09 37.36 36.19 36.45 31.19 34.64 31.57 33.62 35.8 33.5 38.33 32.5 38.79 31.68 41.16 30.41 43.12 30.47 46.85 29.2 49.77 29.27 52.46 28.22 56.05 28.71 58.2 29.37 60.33 29.08 62.55 29.35 63.19 30.14 64.79 30.22 69.12 30.04 72.59 30.66 76.76 30.79 78.15 31.13 82.53 30.89 86.55 31.91 87.45 31.92 91.48 32.22 93.82 33.03 96.94 33.61 98.81 33.55 99.22 32.67 100.44 32.33 104.82 32.4 105.54 31.92 107.55 31.69 110.73 30.83 112.61 31.15 114.11 31.78 116.79 30.65 118.18 30.62 119.34 31.74 120.56 32.33 122.13 31.97 123.43 31.17 126 32.53 127.29 31.57 129.41 31.55 131.87 31.9 133.35 32.43 136.51 32.79 138.22 33.27 142.72 33.68 143.68 33.42 146.38 34.12 147.38 34.69 145.6 34.98 144.14 35.75 147.54 36.23 150.77 36.28 153.97 36.04 156.07 35.63 156.99 36.17 159.29 36.49 160.63 37.23 159.59 37.66 162.47 38.06 160.66 36.17 160.02 35.25 159.08 34.96 159.91 34.23 161.85 34.05 164.67 33.54 166.05 33.99 166.3 34.56 169.04 35.51 170.63 35.32 172.37 36 174.89 36.26 177.32 35.94 180.22 36.19 181.84 35.96 183.97 36.43 184.53 35.9 181.79 35.44 182.28 34.88 184.39 34.58 185.04 35.01 187.12 35.23 186.38 36.57 187.68 37.37 188.84 37.21 187.97 36.16 188.4 35.53 189.98 35.42 192.41 34.38 192.34 33.61 191.03 32.35 186.94 31.43 185.99 30.42 186.7 29.95 185.98 29.35 186.3 28.32 188.97 26.93 190.95 27.23 193.96 28.35 193.89 29.26 197.03 30.75 194.4 31.78 196.26 32.18 199.27 32.24 198.68 32.72 199.46 33.66 199.23 34.53 200.77 34.42 201.24 33.33 202.59 32.77 204.84 33.78 205.35 34.68 204.16 34.94 204.5 36.1 206.56 37.39 208.18 36.65 209.47 35.42 209.96 34.18 211.89 33.2 210.73 32.85 210.46 31.49 213.26 31.51 214.54 31.81 216.86 31.83 216.81 32.35 219.72 33.1 219.83 34.12 217.01 34.59 218.29 35.89 219.85 36.78 219.41 37.64 216.81 38.71 212.74 39.62 210.6 38.82 207.96 38.83 209.27 39.96 206.5 41.44 205 41.46 201.06 40.15 200.24 40.27 202.77 41.46 207.09 41.79 206.53 42.61 204.7 44.04 203.49 44.43 200.19 44.49 200.47 44.88 197.55 45.54 198.85 45.88 198.57 46.78 197.29 47.1 195.27 47.06 192.92 49.53 191.5 50.39 191.48 50.79 190.2 52.39 189.89 53.42 190.05 55.74 191 56.16 193.23 56.07 195.51 59.94 198.04 59.43 199.19 59.46 200.96 60 202.83 60.29 204.77 61.14 205.91 62.05 210.08 63.06 211.45 63.76 214 63.7 216.95 64.07 217.75 64.81 217.31 65.82 217.92 67.02 217.66 68.92 219.12 70.09 218.98 70.39 221.21 71.58 221.85 72.53 223.03 72.88 223.78 72 224.93 71.64 226.01 70.49 225.5 69.65 224.35 66.39 223.41 65.07 225.08 64.66 227.34 63.87 228.6 63.16 230.09 61.94 230.38 60.61 230.26 59.56 228.97 57.7 225.96 56.23 226.15 55.75 227.63 54.69 227.71 54.03 228.63 53.22 227.38 51.57 227.68 50.13 226.8 48.64 226.95 48.09 228.49 47.61 231.94 48.18 234.44 48.47 236.79 47.87 240.22 49.48 241.68 50.74 244.21 50.94 245.63 51.78 245.37 52.45 245.65 53.71 245.54 54.77 246.67 55.76 247.72 55.74 248.54 56.43 250.22 57.27 252.35 56.53 254.57 55.28 254.96 53.81 256.07 52.75 257.03 52.72 259.15 54.79 259.94 55.84 261.25 56.7 261.89 57.81 262.79 58.05 262.9 59.12 264.04 59.94 263.64 61.31 264.59 62.48 265.16 62.27 267.15 63.82 269.22 64.06 269.7 64.75 271 64.69 272.75 65.35 271.1 65.84 270.03 66.5 268.12 66.98 267.38 67.71 270.71 66.5 271.01 66.11 272.73 66.25 273.32 66.95 274.84 67.13 275.62 67.53 276.31 68.36 276.24 70.36 276.54 70.74 273.7 72.25 271.94 72.32 270.3 72.61 268.85 73.75 266.82 74.91 264.14 75.03 260.98 74.81 256.21 74.87 255.32 74.77 252.6 75.01 251.61 75.49 250.66 76.92 248.64 77.26 247.21 78.08 245.33 79.69 245.04 80.28 243.27 81.82 242.02 82.58 240.67 82.82 238.89 83.71 238.23 83.88 237.13 84.93 235.88 85.45 236.02 85.8 234.4 86.55 236.95 85.62 237.83 84.32 240.62 82.95 242.04 82.67 243.68 82.06 247.08 79.3 248.74 78.52 250.24 78.02 253.31 77.22 254.76 77.11 256.28 77.27 257.55 77.87 257.57 78.69 255.34 79.87 253.86 79.49 254.44 80.59 255.41 80.33 256.57 80.52 256.11 81.31 255.21 81.9 256.13 82.38 256.93 83.81 259.7 84.9 261.01 84.92 261.5 85.18 262.67 84.64 263.69 85.04 264.15 86.04 261.43 86.91 258.66 87.7 257.5 87.56 257.29 88.11 256.22 89.07 254.28 89.75 253.42 89.19 253.48 87.96 254.46 87.09 256.13 86.29 257.14 85.99 256.14 85.17 253.96 86.07 251.77 86.41 251.21 86.19 251.25 86.82 249.47 87.77 248.65 87.65 247.91 88.09 247.14 87.82 246.9 88.56 245.3 89.21 244.44 89.3 243 91.38 243.2 91.73 242.51 92.48 243.2 92.71 243.94 94.04 243.38 94.24 241.67 94.03 241.46 94.59 238.52 94.84 236.89 95.38 235.46 96.3 236.06 96.92 235.58 98.25 235.02 99 233.98 99.54 232.97 99.11 232.88 99.66 233.67 100.96 232.43 102.9 232.29 102.18 231.06 101.28 231.16 100.19 230.38 100.09 230.42 100.9 230.95 102.32 230.95 103.5 230.64 103.82 231.53 104.49 231.78 105.06 231.21 105.89 230.47 106.45 232.04 106.73 232.03 107.3 231.15 107.94 230.4 108.13 229.88 108.86 229.91 109.38 229.02 109.38 227.65 110.31 227.07 111.14 225.82 111.23 225.06 111.7 224.27 112.86 222.62 114.01 222.16 114.1 220.78 115.13 220.01 116.03 220.06 116.42 219.3 117.87 219.9 120.27 220.67 121.92 221.5 123.17 221.23 123.84 222.17 126 222.58 127.42 222.39 129.05 221.85 130.16 221.03 130.55 220.23 130.19 219.64 129.05 218.86 128.72 218.53 127.71 217.26 126.33 216.77 124.87 216.36 124.59 216.77 123.17 216.79 122.28 215.37 121.03 214.48 119.98 213.7 119.58 212.95 120.02 210.88 120.52 210.8 120.09 209.91 119.44 208.98 119.08 208.8 118.72 207.18 118.86 205.4 119.17 202.93 118.89 202.01 119.05 201.41 119.44 200 118.97 199.58 119.5 201.41 120 201.12 120.66 201.58 121.1 202.68 121.58 201.93 121.87 200.77 121.01 200.28 121.63 199.66 121.38 198.84 121.74 197.64 121.39 197.55 120.89 196.3 120.18 195.49 120.79 194.58 120.71 193.46 120.3 192.31 120.32 189.66 121.21 188.81 122.11 187.52 122.83 186.21 122.93 185.95 123.43 184.64 123.93 184.6 124.51 183.75 126.53 184.09 127.8 184.66 128.76 184.48 129.6 183.86 130.86 183.5 132.25 183.29 134.65 183.33 135.46 183.08 136.16 183.57 138.42 184.71 140.62 186.19 142.27 186.56 143.43 187.23 144.08 187.6 144.74 189.01 144.86 189.86 145.27 190.42 146.02 191.21 145.98 192.63 145.46 194.11 145.37 194.49 145.06 196.12 144.83 196.5 145.37 197.1 145.4 197.67 145.03 197.52 144.42 198.86 143.42 198.96 142.58 199.38 142.17 199.43 140.75 199.72 139.74 200.9 139.15 202.99 138.84 204.64 138.4 206.59 138.77 207.07 138.45 207.54 138.83 207.45 140.02 206.66 140.85 206.11 141.75 206.21 142.9 205.46 145.42 204.5 144.82 204.28 145.37 204.72 146.14 204.33 147.28 204.24 149.44 203.39 150.3 202.95 151.09 204.43 151.45 205.78 151.05 207.36 151.37 208.58 151.33 209.85 150.84 210.51 151.07 211.64 150.87 213.22 151.24 214.33 152.57 215.2 152.53 215.67 153.08 215.35 153.62 215.6 154.53 215.1 155.29 214.76 156.79 214.88 158.8 214.31 159.86 214.57 160.51 214.09 161.26 214.59 162.11 215.02 163.11 216.51 164.88 216.98 165.08 217.41 165.41 217.69 166.29 218.72 166.46 219.66 166.85 220.81 166.61 221.45 166.18 222.38 165.9 223.6 165.04 225.98 165.46 226.92 165.84 228.49 167.12 229.65 168.38 229.82 167.89 229.57 167.21 230.92 166.39 231.23 165.77 232.33 165.36 232.44 164.16 232.26 163.71 232.76 162.79 234.09 161.69 234.96 161.95 235.84 161.17 237.49 161.27 238.8 160.35 239.79 159.96 240.1 159.29 241.03 158.78 242.04 158.97 242.31 159.61 241.91 160.02 240.69 160.54 240.52 161.01 241.3 162.69 241.14 163.16 240.15 164.55 240.93 165.62 241.09 166.2 241.96 166.08 242.43 165.59 242.5 164.8 241.76 163.56 241.41 162.42 241.58 162.01 244.32 161.1 244.2 159.97 244.82 159.32 245.21 159.72 245.65 160.87 246.53 160.78 247.43 160.97 248.38 161.57 248.75 162.88 249.55 163.1 251.51 162.79 253.15 162.74 254.03 163.57 255.63 163.99 256.25 163.93 258.41 162.67 259.25 162.72 261.01 162.48 260.7 163.22 261.42 163.76 261.86 164.63 262.3 164.18 263.09 164.56 263.65 164.48 264.1 164.96 265.24 165.56 264.67 166.15 264.11 167.67 265.22 167.27 266.25 167.19 266.96 167.36 268.77 168.41 270.04 169.59 270.38 170.07 270.37 170.71 271.47 171.27 273.23 172.8 273.22 174.01 273.72 173.03 274.83 173.15 276 173.47 276.25 173.1 278.45 173.04 280.18 173.44 279.95 174.43 280.64 173.5 281.51 173.98 282.74 174.29 284.09 175.36 284.91 176.28 285.21 176.18 285.5 177.31 285.93 176.75 286.46 177.24 286.78 178.17 286.83 179.04 287.71 181.59 288.15 182.26 289.26 182.63 289.39 183.73 288.51 184.46 287.36 185.93 286.32 186.5 286.05 187.18 285.39 188 285.35 188.57 284.85 189.83 286.29 189.02 287.13 188.78 287.64 190.22 288.27 190.78 289.17 190.37 289.79 190.58 290.69 190.15 291.4 190.37 292.03 189.61 292.61 189.68 292.6 188.85 293.34 187.95 294.93 187.7 296.24 188.04 296.67 188.46 297.55 188.6 298.82 189.3 299.23 189.32 299.62 190.07 300.08 189.56 301.02 190.18 301.62 191.56 301.31 191.64 300.87 193.28 301.5 192.84 301.78 191.93 302.62 192.04 303.67 191.86 303.84 191.58 304.82 191.78 306.35 192.5 307.17 192.4 308.41 192.82 310.28 192.51 311.41 192.66 314.71 194.55 315.66 195.66 316.6 196.49 317.32 196.76 317.6 197.2 318.89 197.61 320.24 197.52 321.2 197.68 321.89 198.65 322.44 200.49 322.85 202.47 322.78 203.98 322.07 206.11 321.66 206.77 319.32 209.55 318.12 210.3 317.07 211.8 316.46 213.13 315.24 214.78 314.02 214.65 313.92 215.46 313.35 216.43 313.68 217.41 313.42 218.8 313.81 221.48 313.27 223.47 313.07 224.7 313.21 225.56 312.47 226.19 311.91 227.63 312 229.05 311.33 230.07 310.46 231.91 309.58 232.65 309.01 233.98 309.14 234.9 308.85 235.27 307.55 235.77 306.94 236.37 306.81 237.18 304.78 237.22 303.5 237.4 302.76 237.1 301.05 237.42 300.99 238.04 300.36 238.14 299.31 238.82 298.1 239.06 296.11 240.04 295.51 240.61 293.87 241.72 293.19 242.42 292.39 243.54 292.1 245.5 292.37 246.6 292.18 247.4 292.22 248.55 291.83 249.65 290.78 250.31 289.73 251.4 289.09 252.37 288.5 253.76 287.79 254.8 286.61 256.09 286.59 255.29 287.64 254.37 287.58 253.76 286.6 253.62 285.92 255.15 284.79 255.88 284.3 256.99 284.45 257.62 283.98 258.22 283.29 259.77 281.7 261.11 280.78 262.52 279.93 263.17 278.3 263.75 276.59 263.4 275.61 263.69 273.97 263.18 273.27 262.68 271.81 262.74 270.55 261.49 270.65 260.04 271.25 259.23 270.99 258.29 271.05 259.37 270.49 259.71 270.22 260.93 270.56 262.11 270.27 262.34 270.81 263.19 271.96 263.66 272.98 264.31 273.3 265.02 272.87 265.49 273.06 266.43 274.32 267.06 274.38 268 273.46 269.32 272.77 269.98 272.44 270.74 271.04 271.51 269.2 272.04 267.38 272.4 264.53 272.75 262.42 272.58 261.82 273.1 262.45 273.59 262.28 274.59 261.93 274.75 261.69 276 262.02 276.47 261.69 276.95 260.44 277.44 258.64 277.53 256.24 276.78 255.62 276.93 255.88 278.45 255.79 279.35 257.2 280.37 257.91 280.29 258.59 279.66 259.03 280.31 258.82 281.2 257.84 281.32 257.41 280.68 256.69 280.59 255.86 281.09 257.18 281.76 255.95 282.28 255.29 283.03 255.39 283.95 255.12 284.9 254.48 285.31 254.5 286.08 253.28 285.98 251.61 286.63 250.25 288.21 250.23 289.04 251.98 290.51 253.7 290.7 254.28 291.26 253.85 292.33 254.12 292.58 252.83 293.47 251.41 294.1 249.97 295.48 249.75 296.83 248.94 297.35 247.18 297.99 246.53 299.25 246.98 300.77 248.28 302.37 246.52 302.03 245.81 302.51 243.07 303.28 242.72 304.3 242.63 305.52 241.96 305.75 240.01 305.2 239.72 304.36 240.73 304.43 241.73 304.03 241.76 303.27 239.38 304.36 238.07 304.34 238.43 303.51 239.39 303.38 238.97 302.75 237.43 303.92 235.93 303 235.31 301.84 236.33 302.1 237.03 301.67 236.03 301.1 236.2 300.1 234.16 299.5 233.54 298.66 235.23 297.09 235.21 294.03 234.69 293.32 234.51 292.05 235.62 290.9 235.63 290.44 233.74 289.92 233.43 289.61 232.29 289.63 233.92 288.63 233.6 288 235.62 287.76 235.88 286.99 236.96 287.13 237.38 286.01 238.76 285.47 238.93 284.81 237.6 284.22 238.19 283.03 237.96 282.64 238.45 281.74 238.66 280.08 239.29 279.37 238.92 278.66 238.15 278.4 237.03 278.96 236.39 278.34 236.04 277.46 236.7 275.16 237.27 274.51 237.68 273.26 237 271.36 237.15 270.64 236.72 269.88 236.85 268.75 237.7 268.7 237.92 267.64 238.46 266.98 239.02 265.19 239.9 264.11 240.28 263.04 240.39 262.05 241.14 260.91 240.97 259.67 241.61 258.71 241.45 256.82 241.15 255.4 241.13 253.54 241.73 253.13 241.92 252.04 241.47 250.43 242.2 249.22 242.5 247.77 243.4 244.68 243.25 243.47 243.85 242.11 243.56 240.94 243.75 239.03 243.96 238.55 243.53 238.11 243.58 237.42 244.1 236.96 244.64 233.96 244.4 232.25 244.5 230.21 243.91 226.98 241.87 225.51 241.44 224.65 240.15 224 239.36 223.35 238.64 223.14 236.35 222.12 235.64 221.59 233.52 220.48 232.57 219.34 231.68 218.75 230.89 217.64 231.13 216.27 229.69 213.69 228.98 213.05 228.83 212.17 227.91 211.33 227.69 210.33 226.69 208.68 225.41 205.41 224.86 204.51 224.05 203.68 223.19 201.98 222.42 201.05 220.87 200.24 220.05 199.48 220.71 199.08 220.21 197.46 219.7 196.66 219.82 195.89 220.9 194.58 221.95 193.82 222.84 193.16 223.27 192.03 222.38 191.92 221.67 192.13 220.53 191.17 220.96 190.92 220.89 189.38 220.67 188.7 221.44 188.19 221.6 187.13 222.37 186.33 222.61 185.4 222.47 184.57 223.24 184.14 225.11 183.64 225.19 183.09 224.83 182.71 225.34 182.21 225.82 182.38 225.73 181.2 226.83 180.8 227.83 179.93 228.78 178.36 228.95 177.75 228.37 177.31 228.68 175.85 228.43 174.31 228.76 173.5 228.28 172.62 228.52 171.89 227.32 170.29 226.72 169.59 226.17 168.44 226.85 167.74 226.06 167.59 225.96 167.19 224.69 166.37 223.9 166.35 223.36 166.69 223.22 167.26 221.85 167.94 221.65 168.41 222.5 169.32 221.69 170.19 220.79 170.31 220.37 169.22 219.33 169.2 218.84 168.27 216.73 167.87 216.28 168.42 Z M 240.91 146.33 240.27 145.91 238.46 146.08 237.33 145.86 236.22 146.32 235.04 145.65 235.46 144.94 236.87 145.25 238.65 145.45 239.63 144.92 238.6 144.04 238.84 143.22 238.07 142.84 237.92 142.19 238.99 142.2 239.91 142.55 240.89 142.6 241.38 142.21 242.72 142.17 244.55 142.79 244.93 142.71 245.41 143.53 246.33 143.75 247.75 144.41 248.47 145.22 247.81 145.92 247.19 145.51 245.34 145.43 244.43 145.85 243.4 145.67 242.56 145.81 241.74 147.2 241.22 146.91 240.91 146.33 Z M 218.59 134.97 220.05 135.2 221.23 135.1 221.86 135.45 222.5 135.46 223.38 135.9 224.27 136.64 225.58 136.73 227.4 137.77 228.21 137.83 230.1 139.13 232.15 139.52 232.33 140.35 234.01 140.54 234.83 141.13 235.6 141.33 235.41 141.8 234.56 141.85 233.49 142.2 232.53 142.22 231.18 142 227.73 142.3 228.84 141.31 228.81 140.55 227.11 140.39 226.01 139.64 225.69 138.62 225.28 138.39 224.28 138.52 222.15 137.83 221.56 137.41 220.53 137.43 218.64 137.1 218.77 136.51 218.45 136.04 216.6 136.02 215.18 137.05 214.02 137.17 213.73 137.67 213.08 137.38 213 136.71 213.7 136.07 215.45 135.4 216.76 135.23 218.01 134.91 218.59 134.97 Z M 216.99 138.5 216.34 138.78 215.83 138.01 216.65 137.79 216.99 138.5 Z M 19.92 45.24 22.21 45.11 23.13 45.57 25.71 46.28 23.66 46.45 19.92 45.24 Z M 31.73 52.46 32.63 52.62 32.94 53.51 31.62 53.81 29.51 53.29 30.98 52.46 31.73 52.46 Z M 61.08 58.14 61.93 58.08 62.59 58.68 61.56 59.2 60.24 59.46 59.09 59.99 57.88 60.14 57.07 59.22 58.01 58.55 59.04 58.64 61.08 58.14 Z M 37.63 64.44 37.89 64.98 36.3 65.24 35.44 65.67 34.5 65.27 35.29 64.66 36.76 64.31 37.63 64.44 Z M 109.66 63.31 109.43 63.8 107.82 63.9 108.23 62.55 109.02 62.28 109.66 63.31 Z M 104.37 59.95 105.29 60.23 104.71 61.15 103.85 61.15 103.26 59.81 104.37 59.95 Z M 100.82 59.18 101.59 60.59 101.57 61.51 100.02 60.36 100.31 59.9 99.01 59.26 99.98 58.78 100.82 59.18 Z M 101.46 57.39 103.11 58.67 103.13 59.22 102 59.84 101.5 58.55 101.46 57.39 Z M 99.13 57.2 100.75 57.63 100.56 58.83 99.65 58.49 98.36 58.47 97.4 57.53 99.13 57.2 Z M 103.93 61.43 104.73 61.47 106.45 62.87 106.47 63.33 107.45 63.93 107.44 64.83 105.67 64.29 104.19 62.63 104.65 62.35 103.93 61.43 Z M 62.14 56.95 62.82 57.39 60.89 57.75 60 57.55 61.57 56.75 62.14 56.95 Z M 30.67 66.83 31.05 67.38 29.52 67.66 29.87 66.69 30.67 66.83 Z M 55.13 144.17 54.46 144.04 54.44 143.35 54.09 142.53 54.6 141.95 54.57 141.37 55.98 141.99 56.85 143.03 55.73 143.62 55.13 144.17 Z M 53.12 139.91 53.58 139.87 53.96 140.55 53.23 140.61 53.12 139.91 Z M 50.21 138.75 49.52 139.06 49.16 138.47 49.85 138.21 50.21 138.75 Z M 239.27 95.46 237.75 96.2 236.48 96.33 236.91 95.61 239.27 95.46 Z M 105.95 66.33 108.06 66.64 107.37 68.24 105.74 68.14 105.07 67.1 105.04 66.29 105.95 66.33 Z M 107.95 68.4 108 69.37 107.03 69.31 106.63 68.53 107.95 68.4 Z M 118.05 74.06 121.85 74.78 123.71 76.75 125.14 77.2 126.25 78.62 126.03 79.17 123.61 78.59 121.08 77.49 121.06 77.08 119.48 76.77 119.19 75.75 118.23 75.75 117.45 75.12 116.57 75.2 116.48 74.49 115.67 74.13 116.45 73.57 118.05 74.06 Z M 156.57 11.97 157.52 12.67 149.18 12.51 155.26 11.74 156.57 11.97 Z M 155.15 13.18 156.67 13.51 155.73 14.47 151.84 14.87 149.15 14.45 149.04 13.63 155.15 13.18 Z M 143.86 14.82 142.38 16.49 135.4 17.35 134.19 18.16 129.77 17.77 127.85 17.34 130.42 16.87 136.02 14.95 139.72 14.93 142.06 14.43 143.86 14.82 Z M 159.95 17.72 162.52 18.11 164.15 17.71 166.18 18.41 165.34 19.64 162.48 20.22 158.76 19.92 154.08 20.86 150.58 21.36 148.38 21.33 146.3 19.87 143.47 20.13 139.32 19.46 141.51 17.68 143.8 16.88 146.87 16.85 147.69 17.39 150.19 17.4 153.83 18.85 158.19 18.94 156.62 18.15 157.3 17.53 155.57 16.92 157.63 16.16 159.21 16.55 159.95 17.72 Z M 146.14 25.4 148.41 25.17 150.06 24.53 153.35 25.13 155.71 25.25 156.15 24.53 159.05 25.61 160.13 27.26 162.14 26.95 161.27 26.38 160.07 24.26 161.22 23.77 163.96 24.06 166.33 24.97 166.73 25.79 168.69 27.97 168.2 28.7 169.57 29.46 171.45 30.01 175.79 30.82 176.26 31.78 173.5 31.49 172.52 32.14 173.95 32.46 174.22 33.31 170.65 33.79 167.21 33.18 164.72 33 163.57 32.39 161.84 33.36 159.79 33.51 158.5 33.89 153.26 34.38 149.23 34.48 148.15 33.72 147.98 32.93 144.73 32.78 141.73 32.42 140.42 31.58 140.35 30.92 145.99 30.45 150.32 30.65 151.48 30.16 147.84 29.61 142.89 29.85 139.35 29.75 137.85 29.18 138.85 28.58 136.51 27.41 136.34 26.74 137.96 26.13 137.6 25.53 141.6 24.37 145.89 23.67 147.19 24.34 146.14 25.4 Z M 134.58 22.03 138.51 21.69 140.21 21.9 143.95 23.12 144.09 23.52 136.3 25.2 135.31 25.91 133.6 26.24 132.63 27.81 126.88 28.66 125.12 27.43 121.23 26.41 122.95 25.41 123.28 24.33 125.58 22.79 123.59 21.51 131.08 21.1 134.58 22.03 Z M 245.97 2.29 256.41 2.6 260.16 3.29 263.91 3.57 262.18 4.45 256.86 5.14 254.84 6.13 244.52 8.1 241.76 9.51 233.17 10.26 233.54 10.74 230.97 11.18 235.01 11.81 231.83 13.39 227.07 13.53 226.93 14.48 224.13 15.28 226.46 15.68 226.47 16.58 221.14 17.45 220.07 16.71 214.05 16.84 211.27 17.17 201.45 16.76 201.61 16.01 204.05 15.4 207.43 15.19 204.72 14.03 207.11 13.65 205.93 13.02 207.58 11.7 213.1 11.25 213.36 10.7 211.38 9.84 208.43 9.32 208.69 8.27 214.41 8.47 222.55 7.81 215.13 7.4 210.9 7.81 202.89 7.19 200.62 6.38 202.76 5.56 196.85 5.25 199.41 4.82 208.08 4.13 211.81 3.55 217.04 4 217.96 3.21 222.92 2.47 228.25 2.59 232.1 2.22 244.9 2.07 245.97 2.29 Z M 188.34 13.87 193.18 13.99 192.7 14.58 187.23 14.56 188.34 13.87 Z M 192.65 20 192.64 20.75 190.09 20.86 186.6 20.24 185.95 19.84 187.93 18.89 190.69 18.75 192.65 20 Z M 178.33 22.4 180.2 22.87 183.69 22.53 184.98 23.02 183.22 23.86 184.87 25.3 185.84 27.08 181.3 28.26 180.18 28.12 177.02 26.37 174.51 26.01 172.32 24.98 174.07 24.37 175.34 25.06 177.26 25 177.71 24.23 175.12 23.54 176.3 22.71 178.33 22.4 Z M 211.76 41.65 215.11 42 216.75 42.72 218.12 43.02 218.86 44.4 220.83 44.25 222 44.97 220.35 45.64 217.4 45.1 217.2 44.61 214.92 44.23 214.4 44.86 212.4 45.98 210.49 46.35 210 45.2 206.73 45.17 208.81 44.14 208.54 43.19 209.45 40.67 211.05 40.47 211.76 41.65 Z M 183.43 16.81 184.08 18.84 183.21 19.8 181.51 20.04 177.81 20.05 176.76 19.16 178.52 18.55 172.7 18.92 175.16 17.86 173.59 17.21 177.47 16.49 180.5 16.48 183.43 16.81 Z M 170.74 10.5 179.2 12.12 178.88 12.74 180.18 13.73 177.03 13.65 175.95 12.98 172.28 12.59 168.75 12.82 170.53 11.71 166.06 11.12 166.39 10.48 170.74 10.5 Z M 196.32 6.47 199.07 7.66 205.65 8.15 207.2 9.21 206.83 9.73 210.47 10.02 210.94 10.73 207.11 11.42 203.18 12.99 199.14 13.08 194.56 12.55 191.27 11.21 194.85 10.57 189.19 10.55 188.76 9.75 186.17 9.32 185.49 8.68 188.05 8.1 186.91 7.45 188.82 6.76 196.32 6.47 Z M 190.98 15.82 194.48 16.51 197.61 16.34 198.61 16.88 202.09 17.18 199.94 17.73 204.49 18.93 206.58 18.69 209.21 18.95 213.95 18.25 217.89 18.22 221.95 18.67 223.42 19.07 223.76 20.33 222.05 20.99 218.66 21.22 214.84 20.98 212.86 21.15 204 21.18 203.21 20.69 200.84 21.06 196.15 20.52 195.12 19.29 195.66 18.19 193.65 17.06 188.81 17.26 185.78 16.29 185.52 15.69 188 15.49 190.98 15.82 Z M 186.75 12.23 189.67 12.65 189.22 13.43 185.01 13.84 182.2 12.46 182.3 11.63 186.75 12.23 Z M 193.47 21.92 195.57 22.34 198.09 22.26 199.71 22.57 195.81 25.04 193.09 24.94 191.55 26.65 188.99 26.65 188.2 24.98 188.01 22.95 189.33 22.23 193.47 21.92 Z M 184.01 31.94 186.54 32.6 187.9 33.95 186.31 34.54 183.94 34.37 179.99 33.67 179.3 33.29 181.76 32.62 181.55 32.15 183.23 31.45 184.01 31.94 Z M 264.55 84.47 265.21 84.93 265.95 84.46 265.88 83.89 267.3 83.99 266.96 84.61 266.14 85.11 264.15 85.29 263.69 84.48 265.07 82.58 265.63 82.18 266.26 82.64 265.72 83.96 264.55 84.47 Z M 277.07 72.07 276.28 72.84 276.15 73.47 274.33 75.35 275.32 75.28 276.39 75.57 276.11 76.41 278.03 77.02 279.02 76.61 280.39 76.72 281.25 77.38 280.63 78.11 280.76 78.75 282.47 78.65 281.34 79.4 280.98 80.09 282.62 79.85 282.13 80.68 283.28 80.91 282.36 82.84 281.15 82.84 281.23 82.22 279.91 82.39 280.59 81.27 280.32 80.45 279.34 81.1 278.4 81.28 277.38 82.34 276.34 82.42 277.66 81.13 276.17 80.95 275.38 80.64 273.76 80.86 270.69 80.63 268.96 80.86 268.41 80.21 269.86 79.19 269.85 78.59 270.96 76.84 271.4 76.49 272.99 73.93 274.2 72.65 275.81 72 277.07 72.07 Z M 208.06 28.91 210.16 28.59 212.05 28.72 212.34 27.63 209.56 26.74 210.83 25.78 210.15 25 211.54 23.75 216.77 22.88 219.55 23.09 222.06 25.06 220.58 26.25 224.88 26.11 227.1 25.19 229.55 25.12 233.34 25.75 235.27 27.06 241.6 27.9 243.08 28.7 243.59 29.51 246.68 29.45 250.68 31.07 250.91 31.76 249.01 31.69 248.13 32.08 251.99 32.62 249.82 33.28 249.18 34.36 251.41 34.86 253.2 35.67 256.96 35.99 258.12 37.03 260.26 37.27 259.78 37.74 261.72 38.01 262.64 37.75 264.12 38.57 262.87 39.32 262.59 39.93 261.11 40.81 259.54 41.03 259.46 41.97 257.8 42.08 256.66 41.85 255.03 40.54 255.24 39.99 252.64 39.39 250.79 39.34 251.08 39.94 248.7 40.15 250.81 41.16 251.79 42.03 255.31 43.05 255.89 44.43 256.63 44.38 256.99 46.08 255.76 46.08 255.33 47.29 253.75 46.66 252.29 46.48 249.63 45.67 248.17 45.05 247.25 45.1 248.95 46.28 249.98 46.46 253.08 48.21 253.13 49.17 250.51 48.54 248.43 48.36 246.87 47.98 245.84 47.23 244.31 47.19 242.05 46.57 240.46 45.71 239.91 45.09 237.2 43.51 234.83 42.96 233.6 43.43 229.93 43.91 227.56 43.63 226.71 43.08 226.89 42.36 228.32 41.87 228.59 41.22 231.91 41.73 236.94 41.03 235 39.7 237.56 38.52 239.91 37.23 237.46 34.99 234.53 34.01 233.93 33.4 230.64 34.04 232.01 32.66 229.03 31.92 224.74 29.81 224 30.18 225.3 30.75 223.52 31.38 220.23 30.94 217.93 31.5 215.81 31.14 214.11 31.23 208.65 30.82 207.98 30.26 205.15 30.59 203.05 29.99 201.91 28.78 205.28 29.05 205.22 28.47 202.54 28.29 200.84 27.84 200.44 26.83 200.81 25.8 202.13 24.34 205.55 22.89 207.66 22.65 211.64 22.96 209.18 23.92 207.97 24.78 208.61 26.44 209.29 27.22 211.53 28.15 208.06 28.91 Z M 263.01 77.49 262.08 77.52 260.26 77.2 259.1 76.81 257.84 75.61 260.66 76.13 262.97 77.07 263.01 77.49 Z M 258.55 83.31 260.06 83.41 262.2 83.27 260.62 84.34 258.93 83.83 258.55 83.31 Z M 218.23 46.76 217.98 47.43 215.98 48.41 214.47 48.52 214.02 47.82 215.18 46.87 218.23 46.76 Z M 223.67 47.97 224.17 48.82 223.3 49.74 222.05 49.19 222.15 48.54 223.67 47.97 Z M 232.25 34.86 233.41 35.06 233.47 36.6 232.02 37.17 229.31 37.2 228.64 36.23 229.89 35.07 232.25 34.86 Z M 223.69 23.05 226.46 23.02 228.86 23.39 230.89 24.32 230.65 24.89 227.46 24.72 223.77 25.04 222.26 24 220.84 23.65 220.79 22.9 223.69 23.05 Z M 221.04 69.39 218.59 68.92 218.57 68.42 220.15 68.37 221.04 69.39 Z M 225.03 61.59 224.49 62.43 223.19 62.61 222.66 62.33 223.56 61.64 225.03 61.59 Z M 166.61 24.67 162.99 23.43 163.67 22.95 166.11 22.8 168.03 23.13 168.17 23.71 166.61 24.67 Z M 173.4 17.81 170.99 18.37 168.69 17.44 172.61 17.22 173.4 17.81 Z M 115.04 68.96 115.14 69.9 113.86 69.22 113.98 68.21 115.04 68.96 Z M 236.81 36.06 234.7 35.96 235.13 35.37 237.22 35.65 236.81 36.06 Z M 224.42 33.71 225.78 32.54 226.59 32.69 224.42 33.71 Z M 333.6 1.08 342.48 1.69 345.76 2.6 352.3 3.23 344.25 4.54 352.7 4.39 353.13 5.22 361.82 5.81 365.52 4.91 372.97 5.32 374.44 5.82 367.85 7.29 362.85 7.71 362.61 8.54 356.93 8.41 355.36 9.41 357.25 9.68 357.72 10.86 353.55 12.18 353.75 13.61 355.15 14.81 359.35 15.15 358.97 16.12 353.58 15.88 351.51 16.57 352.19 17.19 355.44 17.36 356.76 18.38 356.94 19.55 354.59 19.37 353.48 19.9 355.7 20.12 357.38 21.22 357.07 21.65 353.16 22.03 354.85 22.62 354.54 23.4 350.82 23.9 351.15 24.68 350.58 26.45 346.65 25.61 345.32 25.74 351.2 27.4 351.78 27.87 352.29 29.98 348.29 30.15 347.26 29.92 345.96 28.6 343.13 27.75 342.94 28.52 340.78 29.04 338.62 28.94 336.73 30.09 337.9 30.25 340.71 30.09 342.02 30.6 343.41 30.36 348.63 30.89 348.82 31.41 347.45 31.97 343.38 33.26 341.61 34.02 335.16 34.92 333.79 34.89 331.33 35.44 328.76 34.73 328.46 35.75 326.5 36.41 324.41 38.4 323.23 39.05 319.36 40.39 316.31 40.91 311.42 41 312.27 41.47 309.88 42.42 310.93 43.38 309.6 43.95 310.11 45.05 309.01 45.52 308.88 46.06 306.56 47.62 306.19 48.54 306.66 49.2 305.97 49.91 305.31 51.61 304.34 52.57 303.97 53.47 302.32 53.48 299.41 52.86 298.94 52.16 297.93 51.95 298.01 50.88 296.09 51.5 294.05 51.48 291.56 50.48 290.74 49.79 290.16 48.36 288.46 47.83 288.42 47.04 285.91 45.24 285.95 44.66 284.53 43.52 284.16 41.89 282.28 40.06 281.15 39.67 281.11 39.1 282.43 38.18 280.56 37.5 281.59 36.52 281.24 35.94 282.18 35.12 282.43 34.23 284.06 34.03 285.22 34.36 286.4 33.94 286.78 32.9 288.06 31.29 284.17 31.02 282.47 30.48 280.27 30.21 279.93 29.33 283.84 29.62 285.79 30.17 286.66 28.99 282.26 28.24 281.46 27.51 278.77 28.12 276.77 27.7 277.38 26.47 276.75 25.71 278.55 25.29 278.66 24.78 276.6 24.48 277.42 23.91 275.64 23.26 276.02 22.51 274.3 21.79 274.09 20.79 270.1 19.21 270.29 18.54 264.37 17.5 259.38 17.09 251.87 17.92 248.94 17.7 246.22 17.11 246.49 16.32 243.08 15.92 242.92 15.24 247.1 15.2 248.97 14.79 252.7 14.76 252.17 14.12 246.27 14.59 241.18 13.63 238.59 12.98 239.52 12.29 247.06 11.51 250.41 10.94 253.77 10.9 254.99 10.44 256.38 8.98 251.83 8.81 251.49 8.06 256.99 6.76 260.36 6.3 263.82 6.47 264.33 5.11 268.59 4.8 269.84 4.34 278.69 3.77 283.01 3.83 287.18 4.78 289.84 4.61 286.97 3.53 291.69 3.65 299.6 4.93 301.94 3.73 296.97 2.44 304.25 1.76 326.88 1 333.6 1.08 Z M 283.11 31.27 284.63 31.57 284.48 32.28 281.23 32.79 280.78 32.24 278.52 31.96 278.46 30.79 279.48 30.44 281.69 30.66 283.11 31.27 Z M 343.63 29.1 343.69 29.7 338.16 30.14 338.58 29.16 340.2 29.23 342.77 28.83 343.63 29.1 Z M 360.1 19.16 361.02 20.08 358.61 20.06 358.2 19.36 360.1 19.16 Z M 238.12 139.34 237.82 139.81 236.72 139.9 237.02 139.34 238.12 139.34 Z M 227.67 131.54 227.66 132.09 227 132.48 226.44 131.44 227.03 130.58 227.67 131.54 Z M 264.76 163.85 263.46 164 263.75 162.95 264.71 162.66 264.76 163.85 Z M 253.41 145.43 254.52 145.57 254.54 145.88 253.76 146.47 251.05 146.43 251.13 145.31 253.41 145.43 Z M 228.74 145.4 229.52 145.55 230.76 146.08 230.37 146.71 229.64 146.47 228.52 146.78 227.61 146.68 226.62 145.42 227.38 145.25 228.74 145.4 Z M 247.82 307.9 245.97 307.92 245.45 307.59 243.73 307.81 241.64 307.39 242.84 306.76 242.91 305.76 243.66 305.19 244.5 305.48 246.27 304.86 245.64 304.54 244.63 304.72 243.97 303.85 245.36 303.2 245.95 302.67 246.68 303.06 247.87 303.03 248.65 303.76 249.25 305.05 250.83 306.12 255.15 307.96 252.57 308.3 251.64 308.06 248.78 307.82 247.82 307.9 Z M 251.31 308.57 249.11 308.72 249.03 308.07 250.94 308.18 251.31 308.57 Z M 236.47 282.4 235.18 282.21 235.5 281.36 235.61 279.89 235.89 278.96 237.01 279.18 237.14 280.45 236.43 280.71 237.22 281.49 236.47 282.4 Z M 234.91 295.26 234.65 297.16 233.08 296.81 233.34 295.11 234.21 294.28 234.71 294.39 234.91 295.26 Z M 232.62 294.4 232.31 294.01 232.88 292.76 233.4 294.09 232.62 294.4 Z M 234.71 294.02 233.92 294.1 233.28 293.03 234.35 292.99 234.71 294.02 Z M 238.35 304.86 239.94 305.59 237.51 305.89 236.66 304.74 238.35 304.86 Z M 234.14 300.76 234.79 301.56 234.08 302.18 233.52 301.11 234.14 300.76 Z M 245.49 308.05 247.27 308.27 248.64 308.79 248.62 309.38 246.14 309.21 244.88 308.56 245.49 308.05 Z M 241.75 306.09 240.46 306.47 240.41 305.76 241.75 306.09 Z M 236.55 284.72 236 284.94 236.57 286.33 235.75 286.78 234.6 285.28 234.85 284.9 236.55 284.72 Z M 238.21 285.58 237.2 285.27 237.72 284.59 238.71 285.06 238.21 285.58 Z M 289.99 186.82 291.12 186.68 292.3 186.83 292.76 187.09 292.4 188.09 291.54 189.6 290.08 190.11 288.04 190.28 287.48 189.06 287.46 187.74 287.74 186.92 288.62 186.57 289.99 186.82 Z M 289.75 185.72 289.52 186.3 288.41 186.22 288.56 185.8 289.75 185.72 Z M 285.1 189.49 285.74 187.75 286.59 187.79 286.34 188.58 285.1 189.49 Z M 197.68 186.26 198.73 187.98 198.49 188.4 197.46 188.57 197.27 188.08 197.96 187.69 197.47 186.95 197.68 186.26 Z M 269.55 299.96 270.38 300.49 271.49 300.21 271.79 300.93 269.92 301.44 269.07 301.96 267.78 301.88 267.95 301.41 269.08 300.88 269.55 299.96 Z M 266.37 300.39 268.62 300.31 267.17 301.51 265.48 302 264.87 301.71 266.47 301.07 266.37 300.39 Z M 739.07 196.86 738.44 196.28 738.26 195.17 739.19 195.41 739.43 195.74 739.07 196.86 Z M 736.75 195.84 737.19 195.65 737.83 195.93 737.82 196.8 737.5 197.3 736.96 197.4 737.25 198.19 736.64 198.65 735.86 198.62 735.22 199.44 733.45 200.22 731.73 200.26 731.13 199.79 730.56 199.9 728.96 199.09 728.83 198.6 730.28 198.47 730.83 198.67 732.13 198.56 732.74 198.35 733.16 198.58 734.61 198.34 735.44 197.31 736.2 197.14 735.94 195.95 736.75 195.84 Z M 712.49 192.1 712.96 192.14 715.24 193.15 716.77 193.67 718.11 193.92 719.24 194.7 720.26 194.79 721.61 195.95 722.16 196.03 723.12 197 723.31 198.44 724.53 198.76 725.93 199.43 726.68 199.5 727.63 200.31 727.72 201.08 726.11 201.21 725.76 201.67 726.27 202.67 727.46 203.77 728.35 204.28 728.61 205.27 729.07 205.59 729.36 206.38 730.83 206.42 730.73 207.16 731.97 208.05 732.22 208.51 733.98 209.05 733.57 209.89 732.54 209.76 731.95 209.26 728.92 208.89 727.55 208.63 726.76 207.76 725.89 207.12 725.66 206.47 725.18 206.32 723.71 204.22 723.03 203.94 721.36 203.61 720.33 203.09 718.34 204.49 717.19 204.74 717.85 205.82 717.8 206.18 716.2 206.99 715.28 206.64 712.85 206.75 712.5 206.53 710.19 204.27 708.97 204.46 708.54 204.24 707.8 204.37 708.31 203.13 707.56 202.39 707.23 201.69 707.82 201.52 706.87 200.37 706.46 198.92 705.37 197.96 703.88 197.23 702.84 196.99 701.42 196.36 699.68 196.18 698.54 195.35 697.36 194.73 696.98 194.78 696.26 193.77 695.37 195.32 694.75 195.39 694.27 194.52 694.27 193.62 693.37 192.91 693.11 192.25 694.21 192.49 695.24 191.72 696.17 191.96 696.82 191.61 696.86 190.97 695.9 191.25 694.73 191.35 693.28 191.28 692.65 190.72 692.45 189.77 691.03 189.4 690.95 188.21 692.17 187.87 692.88 187.32 693.99 187.11 695.86 187.92 696.98 187.96 697.61 189.33 697.27 190.13 697.38 191.18 699.33 193.7 700.33 193.73 702.01 192.04 702.33 191.35 703.34 191.18 704.06 190.8 703.96 190.39 705.47 189.6 707.34 190.28 709.87 191.52 711.71 191.73 712.49 192.1 Z M 745.71 201.13 745.18 201.53 744.35 201.21 744.03 200.29 743.1 199.55 743.01 198.6 743.58 198.59 744.62 199.93 745.41 200.46 745.71 201.13 Z M 717.38 212.81 717.23 213.59 717.87 214.33 718.28 216.11 718.2 216.77 718.66 218.12 719.12 218.37 720.25 217.86 720.64 218.44 722.05 219.44 722.02 220.62 722.43 221.9 722.36 222.68 723.42 224.15 723.91 225.4 723.7 226.82 724.37 227.44 724.29 228.08 724.7 228.6 726.16 229.3 726.78 229.27 727.88 230.36 729.75 231.29 729.58 231.93 730.74 233.14 731.84 236.06 732.67 235.44 733.7 236.32 734.19 236.36 734.37 238.31 735.83 239.54 736.72 239.96 737.22 240.84 737.94 241.29 738.38 242.18 738.96 242.69 738.97 243.26 739.52 243.87 739.34 244.62 739.51 246.12 739.41 246.59 740.43 248.91 740.49 250.27 739.92 251.24 739.75 252.57 739.22 254.06 739.03 255.99 738.17 257.35 737.98 258.22 737.3 258.92 736.52 259.24 735.79 260.23 735.23 261.74 734.63 262.34 734.03 264.29 733.76 264.37 732.93 265.74 732.41 267.99 732.35 269.5 730.94 270.11 728.65 270.17 727.79 270.4 726.73 271.03 725.53 272.02 723.49 272.54 723.17 272.02 721.22 271.31 721.68 270.75 721.18 270.32 720.67 271.01 719.43 271.57 718.18 272.37 716.12 271.55 714.16 271.15 713.49 271.35 712.57 270.72 711.72 270.61 709.86 268.87 710.02 267.58 709.33 266.33 708.2 265.42 708.54 264.67 707.06 265.32 706.31 265.25 707.03 263.95 706.99 263.37 706.1 262.06 705.72 262.69 705.22 264.21 703.43 264.43 703.71 263.71 704.55 263.7 704.78 262.04 705.75 260.75 705.57 259.91 704.66 259.89 704.21 260.86 702.42 261.75 700.69 263.76 699.66 261.47 699 260.85 698.79 260.19 697.7 259.83 697.26 258.91 697.55 258.46 696.04 257.65 695.29 257.65 694.28 257.15 693.08 257.26 691.98 256.57 690.7 256.13 689.9 256.37 688.45 256.31 685.83 256.59 683.88 257.39 682.23 257.83 679.12 257.9 676.55 259.2 675.15 259.75 674.09 261.32 673.11 261.65 672.16 261.44 670.77 261.66 670.57 261.4 669.11 261.3 666.93 261.6 665.68 261.62 664.78 262.5 663.55 262.74 661.87 263.87 660.64 264.11 658.28 263.87 657.1 263.44 656.53 262.85 654.94 262.25 655.32 260.89 656.06 260.64 656.43 259.89 656.29 258.72 656.49 258.5 656.46 256.57 655.31 254.6 654.9 253.29 654.83 251.56 654.09 250.31 653.89 249.58 653.07 248.56 652.76 246.93 651.77 245.18 652.37 244.68 651.79 244.16 651.36 243.31 651.68 243.12 652.43 244.01 652.57 244.52 653.18 244.59 653.17 243.62 651.97 241.68 651.41 240.48 651.71 238.92 652.16 238.22 652.25 237.35 652 236.49 652.61 234.94 653.06 235.8 653.54 235.84 654.04 234.95 654.6 234.49 655.93 233.95 657.16 232.93 658.7 232.1 660.25 232.24 662.01 231.48 663.23 231.23 664.02 230.64 665.08 230.73 666.44 230.45 667.95 229.9 668.62 229.49 669.31 228.67 670.06 227.27 670.96 226.14 670.79 224.69 671.39 223.93 672.03 223.53 672.59 222.75 672.97 223.69 673.81 225.07 674.37 223.7 673.74 222.87 676.15 222.03 675.71 221.24 676.73 219.92 677.62 219.44 677.48 218.93 678.59 218.21 679.35 218.44 679.55 217.6 680.19 217.39 680.56 217.7 681.3 216.78 683.01 217.78 684.18 219.01 686.97 219.41 687.62 219.1 686.79 218.22 687.52 217.3 687.81 216.4 688.74 215.8 688.54 215.03 689.66 213.81 690.44 213.67 690.87 213.31 691.35 213.53 693.42 213.44 693.89 213.16 694.09 212.13 693.65 211.79 692.9 211.81 693.18 211.15 694.11 211.82 694.87 211.7 695.23 212.26 696.82 212.54 697.56 212.93 698.65 212.88 699.73 213.4 701 212.71 701.65 213.85 702.07 213.2 702.66 212.82 703.57 213.69 702.66 214.65 702.78 215.14 701.31 215.8 701.44 216.93 701.21 217.69 700.15 219.03 700.43 219.56 701.92 220.46 702.11 220.83 703.21 221.54 703.69 221.51 705.24 222.3 706.44 223.37 708.14 223.77 708.67 224.72 710.41 225.55 711.47 225.38 712.17 224.91 712.47 224.03 713.04 223.21 713.46 221.93 713.55 220.9 713.94 219.69 713.71 218.39 713.87 217.68 713.6 216.9 713.98 215.7 713.91 215 714.44 214.2 714.05 214 714.66 212.68 715.07 211.3 715.14 210.58 715.78 210.05 716.37 210.72 716.62 211.38 716.7 212.52 717.38 212.81 Z M 739.32 243.39 739.1 242.95 739.23 242.16 739.93 241.87 739.32 243.39 Z M 703.05 216.91 703.45 218 702.27 217.85 702.41 217.05 703.05 216.91 Z M 689.54 211.53 690.43 211.44 690.98 211.12 691.58 211.66 690.27 212.75 689.6 212.34 689.54 211.53 Z M 705.01 265.53 704.68 266.28 703.14 266.19 702.88 265.56 704.42 265.21 705.01 265.53 Z M 721.51 276.72 722.04 276.69 724.34 277.56 725.83 277.18 726.86 277.2 728 276.71 728.72 277.08 728.73 279.5 728.12 279.99 727.9 280.68 728.02 281.98 727.59 282.12 726.75 281.39 725.57 282.99 724.85 282.76 723.73 282.84 722.5 281.47 722.01 280.62 721.94 279.46 720.92 278.12 720.63 277.15 721.51 276.72 Z M 799 222.15 798.44 222.77 798.84 223.43 797.71 223.57 797.23 223.36 796.8 223.77 796.35 223.18 798.01 222.33 799 222.12 799 222.15 Z M 795.19 224.82 795.88 225.44 796.05 226.39 794.92 226.77 794.23 226.78 793.06 226.38 792.94 225.91 793.72 225.02 795.19 224.82 Z M 783.74 277.81 785.12 277.17 786.37 277.24 785.9 278.32 786.33 278.84 784.69 280.56 783.97 281.58 782.86 282.2 783.31 283.61 782.12 283.47 780.03 284.15 779.56 285 779.3 286.15 778.39 287.58 776.14 289.5 774.84 289.68 773.25 289.62 772.82 289.08 771.7 288.71 769.59 288.72 769.82 287.78 769.59 287.27 770.61 285.98 771.93 285.16 773.21 284.03 774.19 283.83 776.08 282.94 777.5 281.87 778.48 281.47 779.62 280.44 780.13 278.96 781.29 278.18 781.58 277.08 782.69 276.13 783.46 276.86 783.74 277.81 Z M 784.08 263.75 785.35 263.95 786.41 264.44 786.9 265.19 786.57 265.61 787.48 266.8 787.3 267.98 788.58 268.31 788.94 267.17 789.86 268.24 790.37 269.76 791.84 270.3 793.09 270.53 794.59 269.56 795.76 269.86 795.16 271.77 794.51 272.15 794.49 273.08 793.25 272.94 792.25 273.58 792.59 274.25 792 275.33 790.1 277.67 788.6 278.55 788.28 278.12 787.11 277.84 788.28 276.36 788.48 275.62 787.94 274.87 785.55 273.89 785.35 273.07 786.58 272.68 787.02 272.29 787.29 271.05 787.76 270.11 787.32 269.32 787.43 268.2 786.75 268.2 786.69 267.11 785.58 266.5 783.74 264.35 784.08 263.75 Z M 763.98 231.19 764.5 231.27 766.18 232.35 767.22 233.45 768.64 234.27 770.06 235.28 769.68 235.91 768.36 235.28 768.18 234.98 766.29 234.03 764.54 232.48 763.91 231.71 763.98 231.19 Z M 17.99 216.16 18.23 216.91 17.55 216.88 17.08 216.41 17.99 216.16 Z M 749.71 204.58 749.32 205.03 748.8 204.66 748.98 204.01 749.71 204.58 Z M 754.11 206.87 754.6 207.22 755.45 207.2 756.05 207.57 756.11 208.32 754.34 208.02 753.83 207.44 754.11 206.87 Z M 754.4 205.23 752.33 204.14 751.56 203.51 751.86 203.17 752.69 203.83 753.41 204.11 754.32 204.77 754.4 205.23 Z M 749.1 202.56 748.24 202.55 747.34 201.63 748.08 201.59 748.35 202.08 749.1 202.56 Z M 756.33 204.74 756.88 205.4 757.46 206.96 756.6 206.61 755.98 204.87 756.33 204.74 Z M 758.47 209.34 759.33 209.49 759.37 210.31 758.08 209.73 758.47 209.34 Z M 769.62 219.18 769.76 219.91 770.48 219.86 770.63 220.64 769.8 220.97 769.37 220.46 769.14 219.23 769.62 219.18 Z M 771.1 221.99 772.04 222.78 771.18 223.01 771.1 221.99 Z M 421.01 91.43 421.17 92.92 420.36 94.58 419.52 94.12 419.29 93 419.31 91.99 421.01 91.43 Z M 416.61 89.3 416.49 89.33 416.35 89.37 414.4 90.62 413.56 90.84 411.98 90.49 411.22 90.01 410.26 90.14 408.98 89.68 407.22 90.57 406.76 91.18 407.12 92.26 407.2 93.34 405.12 94.4 404.62 94.79 402.29 95.29 401.58 95.82 400.81 96.94 399.28 98.71 399.55 99.72 400.45 100.4 399.15 101.11 398.57 101.74 398.18 103.01 397.06 103.05 396.02 103.78 395.32 104.79 393.82 104.93 392.78 104.84 390.32 104.92 389.64 105.39 388.54 105.57 388.12 106.21 387.53 106.46 386.61 106.09 385.61 104.4 384.74 103.87 383.58 103.9 382.63 104.28 380.94 104.03 380.46 103.34 380.24 100.94 379 100.46 379.22 99.11 379.72 98.66 380.3 97.25 380.81 95.36 380.47 93.98 380.54 93.34 380.74 92.6 379.53 91.05 380.33 90.25 381.08 90.25 381.7 89.71 382.94 89.3 383.9 89.68 387.44 89.7 389.97 90.07 392.01 89.84 393.25 90.17 393.63 89.99 394.82 90.27 396.02 90.09 396.71 89.75 397.24 87.54 397.64 84.78 397.46 83.66 396.04 83.2 395.44 82.55 395.52 82.05 393 80.59 391.35 80.27 390.44 80.31 389.74 79.72 390.26 79.1 389.54 78.72 392.84 78.05 394.03 78.72 394.58 78.48 396.81 78.49 396.49 77.25 395.88 76.18 397.21 76.19 397.48 76.84 399.64 77.04 400.62 76.67 400.41 76.14 402.76 75.48 403.44 74.83 403.5 73.84 404.24 73.28 405.6 73.05 407.43 72.43 409.37 72.41 407.95 72.26 409.94 70.36 410.37 69.25 413.44 67.93 415.11 67.85 415.95 68.2 416.15 67.32 417.75 67.3 418.93 67.59 419.72 66.98 419.86 65.42 419.22 64.61 419.1 63.47 418.03 63.07 418.1 60.83 419.1 59.72 421.18 59.45 422.08 58.67 423.36 58.97 422.82 59.96 422.79 60.8 424.04 61.02 424.07 61.52 422.87 61.71 422.57 62.48 421.26 63.3 421.59 64.78 422.97 65.64 425.27 66.74 426.85 66.24 427.88 65.58 428.88 65.7 430.74 66.94 431.61 67.21 431.51 66.9 431.5 66.72 435.88 65.97 436.71 65.38 438.26 65 440.62 64.75 441.38 65.66 442.06 65.84 443.46 65.59 444.28 64.57 445.49 64.41 446.33 63.76 446.46 63.78 445.65 64.43 446.97 64.54 447.07 63.81 446.65 62.02 446.71 60.35 447.33 59.92 448.17 58.7 450 58.36 452.42 60.03 454.09 59.24 453.92 58.03 454.37 56.96 452.68 56.95 452.11 56.29 452.08 55.1 454.04 54.48 456.4 54.37 456.55 54.11 459.02 54.3 459.79 54.53 462.09 54.46 462.1 53.92 464.17 53.69 464.44 52.89 463.49 52.48 463.51 51.96 461.62 52.12 460.39 52.12 456.87 52.57 455.76 52.88 452.58 53.39 450.53 53.14 450.04 52.52 447.52 51.99 447.35 51.17 447.89 49.78 447.12 48.9 447.33 48.38 446.78 47.5 449.31 45.69 451.53 44.68 453.82 43.3 454.44 42.67 456.24 42.21 456.19 41.17 453.54 40.44 451.21 40.6 449.58 40.36 449.33 40.9 447.8 41.32 447.82 41.95 446.86 42.65 447.58 43.6 446.02 44.74 442.19 46.14 441.24 46.27 440.93 46.89 439.67 47.04 438.61 49.45 437.97 49.82 438.24 51.76 439.8 52.01 441.14 52.75 442.05 53.85 440.53 55.29 438.7 55.84 436.91 56.78 437.17 57.27 436.7 58.16 436.91 58.85 436.64 59.81 435.46 61.69 432.77 61.82 431.51 62.55 431.79 63.23 429.53 63.63 428.56 63.48 428.77 62.86 427.91 61.87 428.56 60.81 427.53 60.17 425.38 57.48 424.71 55.55 425.24 55.45 424.02 55.12 421.32 55.65 418.1 57.42 415.53 57.69 412.65 56.59 412.23 56.14 412.98 55.62 412.96 54.75 411.38 55.03 411.76 54.1 411.35 53.68 411.62 52.05 411.19 51.74 410.92 49.52 412.27 48.19 414.08 47.52 416.15 47.54 415.54 46.76 417.96 46.46 418.62 45.48 419.6 45.23 421.49 45.28 421.52 44.75 423.42 43.52 424.88 42.94 425.16 42.44 426.95 41.83 427.2 40.97 428.76 39.97 429.05 38.82 432.71 36.69 432.8 36 433.95 35.43 435.61 35.14 436.91 34.19 438.55 33.81 440.12 33.02 440.55 32.31 444.49 31.4 446.91 31.39 447.44 30.76 450.28 30.32 451.09 30.92 454.13 29.59 454.66 28.93 457.12 29.25 461.17 28.73 464.51 29.24 468.59 30.54 465.62 31.2 466.04 31.75 468.43 31.63 469.72 31.83 470.9 31.25 473.02 31.7 471.77 32.3 474.67 32.67 479.49 32.94 483.64 34.04 489.51 35.95 490.81 36.21 491.3 38.18 489.82 39.02 487.09 39.72 485.11 39.87 478.72 39.14 477.19 38.66 474.22 38.32 472.81 37.75 471.96 37.98 474.41 39.3 476.25 39.73 477.11 40.31 476.27 41.35 477.15 42.26 477.29 43.2 479.02 43.61 480.61 44.44 483 44.86 484.39 44.39 484.13 43.74 482.42 43.54 480.97 42.57 481.76 41.85 483.19 41.99 484.25 42.5 488.13 43.17 489.29 42.23 488.22 41.45 488.26 40.9 490.2 40.09 491.94 39.74 493.57 38.86 497.75 39.49 498.62 38.52 498.18 37.57 497.05 37.23 498.03 35.59 497.64 34.36 499.92 34.3 501.73 34.52 503.5 35.91 500.92 36.12 499.62 36.74 501.94 38.12 503.5 38.18 505.76 37.7 506.12 36.5 508.35 36.17 512.69 34.8 516.49 34.27 519.26 33.37 519.63 35.08 520.94 34.97 524.23 34.14 526.63 34.35 528.95 33.61 530.6 33.35 531.6 33.94 531 34.59 532.77 34.64 535.07 33.39 533.38 32.05 535.25 31.48 540.45 31.87 547.22 33.48 548.52 33.64 550.14 34.44 551.85 34.81 553.26 33.47 551.94 33.44 550.75 32.3 548.66 31.82 548.35 31.11 549.15 29.51 547.78 29.15 548.33 28.3 551.33 27.42 553.04 25.23 554.38 24.72 558.49 24.69 561.4 25.18 560.98 26.54 559.41 27.71 560.89 28.59 561.22 29.32 560.77 30.76 560.77 33.18 561.4 33.77 563.03 34.31 562.13 35.18 562.15 35.88 560.92 36.49 558.61 38.33 557.25 38.8 554.89 38.14 553.38 38.73 555.92 39.25 557.71 39.2 559.42 39.47 560.53 38.77 563.57 37.81 564.2 36.88 565.74 36.1 564.9 34.65 565.32 33.91 569.48 33.41 571.21 34.54 571.07 36.07 572.89 35 572.13 33.58 568.47 32.84 565.84 33.16 563.54 32.92 563.06 31.79 564.72 29.7 562.01 27.94 563.31 27.06 567.89 26.06 566.8 27.13 566.99 28.17 568.71 28.44 571.75 28.24 569.16 27.61 568.54 26.91 573.97 25.84 576.05 25.87 579.02 26.51 580.68 27.28 583.95 27.27 583.8 28 582.48 28.35 583.69 29.03 584.05 29.86 585.61 29.93 584.32 28.7 585.25 27.61 583.2 26.88 582.17 26.19 579.17 25.63 579.2 24.61 578.46 24.31 578.63 23.24 585.19 23.02 591.94 22.51 592.08 20.77 594.34 19.78 599.91 18.75 602.78 18.62 607.37 18.17 609.64 17.51 612.62 17.6 614.75 18 618.7 17.31 619.02 16.78 622.38 16.78 624.1 16.29 623.86 15.65 628.61 14.24 630.57 14.01 634.73 14.55 632.55 15.24 634.33 15.63 638.14 15.79 639.46 16.25 646.3 16.24 649.64 17 652.41 18.17 651.84 19.41 647.97 20.64 643.48 21.57 639.84 22.96 637.78 23.12 636.03 24.19 638.85 24.11 643.51 23.45 643.29 22.89 644.41 22.24 648.59 22.92 652.83 23.2 655.67 22.94 662.56 23.19 662.52 23.95 665.45 24.54 673.01 24.6 674.03 24.07 673.33 23.31 675.73 22.82 678.45 23.34 683.16 23.43 685.7 24.07 686.86 26.01 686.58 26.51 684.53 26.52 687.64 28.66 690.73 29.5 691.63 29.15 693.85 26.94 695.76 27.84 697.26 28.09 701.21 27.53 704.38 28.13 706.16 27.67 710.3 27.84 709.66 27.38 709.99 26.38 709.45 25.61 714.9 25.11 718.13 25.16 722.49 25.51 724.95 26.04 728.96 26.02 731.4 26.35 733.83 27.78 736.01 28.29 738.06 29.3 740.91 29.2 745.57 28.72 750.32 28.84 753.23 29.39 754.68 30.46 754.3 31.62 756.69 32.02 758.07 32.52 759.93 31.92 763.89 31.77 764.67 32.01 769.79 32.26 771.58 31.72 772.73 32.08 773.07 32.76 775.31 33.19 775.97 33.84 778.03 33.75 779.04 33.26 778.12 32.07 777.91 30.91 782.51 31.22 784.1 31.54 790.37 31.46 792.18 31.93 796.45 32.5 799 33.4 799 42.08 797.78 42.62 795.72 43.11 793.39 42.81 793.31 43.46 796.01 44.52 796.13 45.51 797.52 46.24 798.05 47.36 797.05 48.17 794.61 47.67 793.13 47.58 788.51 48.65 786.84 49.27 784.87 49.51 783.17 50.06 782.14 50.96 778.18 52.35 777.61 53.39 776.79 53.16 775.99 52.34 775.12 51.99 772.7 52.04 770.1 52.63 768.27 53.36 768.75 52.24 765.94 53.09 763.05 53.22 762.23 53.68 761.92 54.86 761.33 55.48 759.41 56.75 759.01 57.58 760.14 58.26 760.69 57.87 761.79 58.44 760.83 59.17 760.88 60.38 761.89 60.65 762.06 61.66 761.42 62.08 760.27 61.6 759.29 61.98 758.5 63.6 759.33 64.95 758.49 65.43 756.38 65.41 754.83 66.19 754.32 67.09 754.44 67.99 751.58 69.11 751.26 70.37 750.46 71.47 747.46 73.33 746.91 72.21 746.61 69.92 746.02 68.81 745.59 66.77 744.96 64.7 744.81 63.62 745.17 62.02 745.76 60.64 747.41 59.63 747.97 58.93 747.55 58.3 749.02 58.19 749.49 57.7 750.7 57.69 752.53 56.81 753.76 55.96 754.33 55.25 756.56 54.14 758.55 52.97 759.11 52.38 761.26 51.58 762.89 51.28 763.55 50.33 763.99 48.23 764.86 47.84 764.1 47.34 762.05 47.66 761.34 49.34 759.97 49.63 756.97 51.18 756.37 51.64 754.41 50.45 755.37 49.34 753.67 49.5 752.62 49.05 750.39 49.43 749.06 49.32 747.31 50.03 747.2 50.49 745.47 51.59 743.52 52.48 742.02 53.68 742.66 54.33 743.95 54.73 741.39 55.36 739.95 55.05 738.89 55.66 735.44 55.81 734.99 55.35 736.91 55.17 735.79 54.37 733.51 54.22 731.71 53.82 730.74 54.45 727.79 54.67 726.99 54.93 724.62 54.57 723.48 55.09 722.65 54.61 717.41 54.71 714.82 55.53 714.22 56.09 711.85 57.28 711.32 58.16 710.34 58.44 709.1 59.23 707.37 60.04 705.22 61.87 701.86 63.62 699.83 64.52 699.82 64.99 701.14 65.32 703.23 65.24 702.98 66.76 704.03 67.01 704.41 67.63 706.55 67.52 707.36 67.18 707.44 65.9 708.83 66.18 709.68 66 710.73 66.5 711.1 67.03 712.56 67.73 713.44 68.42 712.93 70.23 713.63 70.65 713.36 71.22 712.4 71.89 711.86 72.75 711.39 74.27 711.48 76.37 710.71 78.75 708.94 80.16 708.12 81.28 707.2 82 706.65 83.14 705.2 84.75 703.25 86.18 701.78 87.69 701.19 87.95 700.32 89.14 699.54 89.83 696.39 91.37 695.17 91.67 694.17 91.27 693.27 91.25 691.98 90.55 690.73 91.82 689.69 92.54 689.18 92.54 687.63 93.85 687.52 95.75 686.71 96.04 686.19 96.56 684.41 97.57 683.66 97.66 682.78 98.13 682.39 99.4 683.26 99.68 684.56 100.7 685.11 101.69 686.69 103.69 687 104.87 686.84 106.4 687.2 106.63 686.42 108.33 684.87 108.51 684.72 109.02 683.1 108.83 682.38 109.3 680.43 110.17 679.95 108.39 680.89 107.02 680.5 106.14 680.52 105.45 679.78 104.58 680.95 103.87 680.71 102.56 679.17 102.36 678.08 102.68 677.51 102 676.4 101.79 677.23 100.85 677.99 99.22 677.88 98.7 676.1 98.11 675.67 97.64 675.1 98 673.42 98.17 671.18 99.05 669.66 100.16 669.96 98.97 669.36 98.45 671.04 96.44 670.12 95.78 668.6 95.65 667.06 97.13 665.09 97.86 664.28 98.96 663.59 99.49 662.23 99.71 661.09 99.56 660.59 100.69 661.6 101.67 663.65 101.98 663.98 102.74 663.68 103.56 664.78 104.02 666.82 102.74 667.66 102.45 669.64 103.28 671.77 103.35 671.59 104.41 671.19 104.67 670.28 104.39 668.19 105.19 666.87 106.39 666.12 106.82 664.74 108.06 664.26 108.7 665.08 109.66 666.45 110.22 667.12 111.75 667.93 113.13 667.89 113.91 669.11 114.55 669.11 114.92 670.06 115.6 669.73 116.02 669 115.69 668.34 116 669.68 116.89 670.16 117.78 669.39 117.95 668.21 118.58 668.57 119.14 669.18 119.31 670.31 120.05 670.25 121.73 669.81 121.46 669.55 123.43 668.43 123.6 667.3 125.18 667.2 125.76 666.62 126.25 666.19 127.19 665.52 127.47 665.74 127.94 664.81 128.56 665.22 128.86 664.98 129.59 663.84 130.4 663.58 131.05 662.81 131.83 661.76 131.72 661.69 132.57 660.74 133.47 660.38 133.47 658.33 134.93 658.18 135.45 656.02 135.95 655.35 135.73 654.59 136.18 653.29 136.35 652.73 136.41 651.86 135.64 651.65 137 651.54 137.11 650.5 137.28 649.57 138.04 648.14 137.88 647.39 138.52 645.54 138.91 644.26 139.68 644.23 140.08 644.97 140.83 644.11 141.39 643.09 139.95 643.13 139.47 643.68 138.7 642.82 138.57 641.95 138.82 641.68 138.37 640.12 138.23 639.34 138.64 638.09 139.13 637.97 139.64 636.46 139.85 636.64 140.35 636.11 141.34 634.93 142.11 634.5 143.54 634.13 144.27 634.72 145.3 636.07 146.53 636.03 147.03 637.58 148.86 639.47 150.11 640.89 151.99 641.22 152.22 641.8 153.69 642.29 155.6 642.22 156.88 642.56 157.59 642.1 158.28 642.06 160.32 641.22 161.23 640 162.07 637.76 163.26 636.77 163.19 636.71 163.89 636.24 164.94 635.34 165.48 633.86 166.16 633.46 166.8 632.51 167.29 632.35 166.8 632.41 165.02 632.81 164 632 163.77 631.48 163.23 631.12 162.95 629.5 162.81 629.92 162.17 629.5 161.6 628.66 162.12 628.59 160.91 628.17 160.36 627.79 159.68 627.3 159.47 626.18 158.53 625.49 158.18 624.87 158.34 623.58 158.13 623.8 156.54 623.12 156.34 622.19 156.42 621.71 156.71 621.87 157.39 621.59 158.18 621.64 159.33 620.84 160.9 620.53 162.17 619.82 163.44 619.81 164.74 620.32 165.89 621.05 165.67 621.46 166.11 621.58 167.09 622.29 167.98 622.67 169.82 622.97 170.41 623.92 171.1 624.99 171.09 625.65 171.96 626.32 172.48 626.85 172.63 627.28 173.32 628.28 174.07 629.24 175.56 629.36 176.57 629.12 177.96 629.32 178.51 629.29 179.81 630.12 180.59 631.17 183.03 629.86 183.1 629.11 182.89 627.71 182.2 626.42 181.33 625.62 180.61 624.54 179.92 624.55 179.1 623.25 177.52 623.03 176 622.45 173.93 622.43 173.05 621.93 172.03 620.99 171.07 621.05 170.56 619.56 168.83 618.52 167.82 617.76 167.64 617.77 166.88 618.06 165.72 618.79 163.72 618.39 163.36 618.26 162.65 618.73 161.96 618.88 160.62 618.64 160.29 618.78 159.21 618.51 157.14 617.78 155.87 616.82 153.38 616.59 151.12 616.31 150.8 616.39 149.66 615.85 149.69 615.41 148.49 614.95 147.93 614.6 149.12 614.18 149.6 612.28 150.47 611.45 151.46 610.46 151.25 609.67 150.21 608.84 150.57 609.67 147.37 609.32 145.97 608.52 144.43 607.71 144.14 608.36 143.22 606.95 141.85 606.15 141.81 605.56 140.73 604.65 140.22 604.06 139.38 603.95 138.24 603.25 136.43 602.79 135.78 601.6 136.22 600.9 135.12 600.46 135.88 600.81 136.97 599.85 137.95 599.08 137.58 598.54 138.06 597.8 138.16 597.4 137.34 597.4 138.31 595.63 138.38 594.95 137.93 594.35 138.31 593.07 138.65 592.54 139.24 592.8 140.43 592.3 141.28 591.25 142.16 589.69 142.66 588.97 142.52 588.92 143.07 587.91 143.92 586.43 145.76 585.43 146.26 584.42 147.28 582.56 148.42 582.34 149.6 581.24 150.12 580.08 150.26 579.5 151.38 578.77 151.08 577.98 151.49 577.45 152.9 577.7 154 577.58 154.81 577.87 155.78 577.47 156.15 578.09 156.69 577.84 158.18 577.02 159.74 576.79 160.65 577 161.49 576.97 163.43 575.98 163.47 575.11 164.85 575.07 165.77 573.83 166.13 573.33 166.6 573.03 167.73 571.83 168.41 570.61 167.68 569.69 166.58 569.19 165.36 569.48 165.17 569.23 164.32 568.29 162.41 567.85 161.13 566.69 159.59 565.74 157.32 565.52 156.02 564.88 154.18 563.92 152.9 563.88 152.18 562.87 150.73 562.57 149.83 562.16 147.25 561.53 144.9 561.4 143.53 561.08 142.35 561.55 140.73 561.4 139.5 561.13 139.37 560.8 138.22 560.91 136.93 560.34 136.95 559.68 137.94 560.16 138.59 559.63 139.42 557.44 140.34 556.76 140.34 555.45 139.55 552.97 137.11 555.56 136.28 555.72 135.39 554.42 135.86 553.47 135.66 552.15 134.91 551.1 133.43 550 133.53 549.2 132.73 548.9 131.44 547.86 131.2 547.85 130.39 547.25 129.62 545.59 130.11 543.59 130.21 543.33 130.49 541.25 130.04 540.74 130.43 538.7 130.33 538.13 130.6 536.52 130.45 536.13 130.67 534.47 130.27 531.79 129.83 530.89 129.97 530.34 129.67 528.11 129.45 527.09 129.14 526.58 127.86 526.31 126.67 525.94 126.26 524.92 126.02 523.36 126.51 521.69 127.45 521.13 127.55 520.25 127.13 519.05 127.07 518.49 126.59 516.8 125.75 516.32 125.1 515.33 124.64 514.53 124.59 513.67 123.95 513.19 122.64 512.33 121.7 512.27 121.1 511.21 119.99 510.8 119.35 509.85 119.75 508.43 118.93 508.44 119.54 507.61 119.9 506.35 119.85 506.33 120.66 506.81 122.07 507.38 123.04 508.41 125.07 509.52 126.06 510.8 126.84 510.89 127.51 511.31 128 510.9 128.43 512.07 130.7 512.62 131.36 512.52 129.91 513.06 128.72 513.63 128.34 514.25 128.9 514.13 129.73 514.38 130.57 514 131.63 513.64 131.77 513.74 132.36 514.31 132.48 515.06 133.14 515.82 133.12 516.7 132.77 519.46 132.94 520.58 132.5 521.36 131.32 522.13 130.8 523.08 129.79 524 129.14 524.31 128.54 525.09 127.95 524.79 129.45 524.99 130.94 525.55 132.07 526.84 133.28 527.71 133.55 529.85 133.9 531.97 136.26 532.61 136.42 532.56 137.06 531.61 138.66 530.55 139.51 529.62 141.08 529.03 141.04 528.26 141.44 527.94 142.85 528.15 144.16 526.74 144.41 525.59 145.11 525.35 146.04 524.73 146.52 522.98 146.76 522.48 147.33 522.57 147.78 522.06 148.54 519.85 148.62 518.84 149.16 517.67 149.41 516.56 149.8 515.99 150.2 515.65 150.94 515.75 151.61 514.39 152.32 512 152.98 511.2 153.39 509.39 153.87 508.72 154.27 507.88 155.17 506.38 155.17 505.09 156.03 503.72 156.46 501.21 156.75 499.84 157.9 498.9 157.9 498.33 158.23 497.38 158.35 496.37 157.85 495.83 156.9 495.94 156.08 495.51 155.25 495.36 154.05 494.69 151.61 494.96 150.77 494.87 150.02 494.65 149.21 493.95 148.36 493.75 147.67 492.55 146.67 491.39 144.91 491.14 144.01 490.35 142.52 488.85 141.39 487.81 140.83 486.66 139.07 486.78 138.61 486.42 137.81 486.66 136.68 486.32 135.59 485.26 133.75 484.06 132.7 483.22 132.47 482.42 131.29 482.35 130.25 481.49 129.23 480.35 127.36 478.87 125.5 477.98 124.17 476.73 123.92 477.1 123.12 477.47 121.25 477.52 120.8 477.37 120.97 477 121.43 476.25 124.21 475.85 124.77 474.84 124.14 473.7 122.99 473.32 121.87 472.53 120.87 472.19 121.17 472.33 122.05 472.92 122.99 474.36 124.47 474.37 125.12 475.13 126.35 475.28 127.24 476.62 129.36 478.01 132.06 478.97 132.97 478.7 133.6 478.74 134.35 479.13 135.45 480.31 136.15 481.73 137.55 481.85 138.46 482.35 139.53 482.52 140.75 482.57 142.91 483.06 144.59 484.06 145.18 484.68 145.86 485.58 146.4 486.25 147.68 486.77 149.23 487.11 151.02 487.57 151.88 488.36 152.02 489.12 153.03 491.27 153.9 492.34 155.32 493.64 156.19 494.86 157.8 495.58 158.14 496.23 159.29 495.92 159.78 494.87 160.29 495.86 160.82 496.29 161.16 497.21 162.41 498.39 163.19 499.62 163.18 501.56 162.29 503.22 162.49 505.08 161.54 506.44 161.62 507.9 161.21 508.48 161.36 511.08 160.76 512.59 159.75 513.62 160.09 513.24 161.19 513.36 162.69 512.82 163.58 512.66 165.41 511.79 166.71 511.06 168.14 510.51 168.66 510.3 169.33 509.39 170.82 508.73 172.63 507.84 174.13 506.92 175.33 506.35 176.34 503.91 179.03 502.08 180.83 499.57 182.3 498.27 183.23 496.35 184.93 494.34 187.03 493.06 188.47 492.06 190.07 491.74 190.45 490.87 190.64 490.66 191.34 490.09 191.94 489.16 192.27 488.92 193.52 487.54 196.24 486.94 196.71 486.4 198.55 486.05 199.34 486.17 200.35 487.5 201.56 487.6 202.1 487.09 202.98 487.43 204.07 487.12 205.03 487.45 206.14 487.87 206.69 487.84 207.17 488.19 208.29 489.69 209.51 489.87 210.84 489.56 211.43 489.95 214.32 489.88 216.16 490.09 218.21 490.48 218.38 490.52 219.1 490.04 219.82 489.91 220.61 488.91 221.73 488.32 222.74 486.99 223.54 486.64 223.94 484.55 224.53 482.56 225.64 481 227.36 480.69 227.92 480.08 228.08 479.03 228.79 478.39 229.52 477.47 230.23 477.04 230.25 476.91 231.54 477.54 232.43 477.87 233.74 478.18 234.31 478.28 235.96 478.86 237.21 478.4 239.07 478.55 239.89 477.93 240.71 476.71 241.33 473.92 242.31 472.69 243.16 472.24 243.95 473 244.51 472.9 245.83 472.12 248.82 471.57 249.76 470.44 250.46 469.46 251.43 467.14 254.96 463.96 257.9 461.76 259.58 460.02 260.62 458.59 261.15 457.61 261.04 456.83 261.7 455.42 261.62 455.03 262.05 452.28 261.65 451.58 261.86 449.99 261.7 449.31 261.83 448.3 262.51 446.68 262.49 445.51 262.71 444.38 263.42 443.52 263.35 441.69 261.92 440.69 261.54 440.86 261.05 439.63 259.38 440.46 258.69 440.59 257.52 440.37 256.68 439.19 255.07 438.1 253.03 437.57 251.49 436.46 249.75 434.84 248.3 434.01 247.02 433.18 244.65 432.91 243.34 432.89 241.8 432.15 239.96 432.08 237.92 431.93 237.23 432.2 236.64 431.75 235.5 430.97 234.56 429.82 232.68 429.19 231.06 428.91 230.71 427.62 228.27 426.81 227.41 426.1 226.22 426.03 224.55 426.2 223.34 426.05 221.41 426.53 220.97 427.22 218.76 427.44 217.43 427.82 216.1 428.59 215.19 428.78 214.63 429.74 214.07 430.34 213.19 430.56 212.5 430.7 210.82 430.42 209.88 430.01 209.41 429.28 207.82 428.81 206.37 429.61 205.57 429.66 204.87 428.51 202.34 428.43 201.73 427.76 200.92 427.27 199.82 428.35 199.62 428.97 199.31 427.51 199.58 427.07 199.08 426.99 198.12 426.64 197.41 426.11 196.43 424.67 194.99 422.94 192.99 421.63 191.9 420.54 190.36 420.68 189.71 420.09 189.19 419.55 187.88 420.25 187.58 420.61 187.09 421.26 184.02 420.81 183.79 421.74 182.04 421.73 181.2 421.89 178.98 420.89 177.62 419.95 177.24 419.73 176.48 418.97 175.77 418.38 176.21 415.86 176.31 414.98 176.68 413.47 176.8 412.39 176.01 411.6 174.16 410.78 172.95 409.82 172.24 409.15 172.1 406 172.19 403.6 172.53 402.63 172.81 402.11 173.43 400.58 173.55 399.23 174.12 398.23 174.73 396.37 175.27 395.56 175.76 394.68 175.39 393.1 175.03 393.16 174.94 393.31 174.94 391.05 174.72 387.66 175.03 386.89 175.2 384.83 175.96 383.28 176.67 381.69 176.14 379.76 175.11 377.22 172.84 376.09 172.33 375.95 171.98 374.97 171.49 374.49 171 373.99 170.6 372.32 169.94 372.27 169.32 371.45 168.9 370.68 167.04 370.53 166.25 369.63 164.48 368.02 163.6 367.25 162.08 366.65 162.06 365.88 161.45 365.64 160.32 364.23 159.9 362.96 158.93 362.84 157.35 362.71 156.74 363.29 156.19 362.77 155.07 361.94 153.86 361.99 153.24 362.66 152.41 363.35 151.2 363.35 150.21 363.76 148.79 364.36 147.42 364.47 146.66 364.35 145.26 364.06 144.19 363.39 143.39 363.91 142.45 364.07 141.47 363.58 140.53 363.15 140.57 362.59 139.57 362.21 140.19 362.31 138.83 362.47 137.77 362.77 137.19 363.39 136.81 364.07 135.11 365.45 132.95 366.66 131.9 367.07 131.18 367.2 130 368.05 128.12 369.91 127.05 370.79 125.01 371.3 124.44 373.43 123.96 374.66 123.4 375.44 122.66 376.76 121.89 378.16 120.24 378.57 119.57 378.6 118.82 378.11 118.22 378.26 116.65 379.28 115.19 379.51 114.11 380.94 112.75 381.6 112.33 383.24 111.74 384.7 111.01 385.92 109.23 386.87 106.99 388.04 106.67 388.68 107.69 389.28 108.11 390.4 108.37 391.81 108.11 393.7 108.45 395.08 108.5 395.76 108.52 397.04 107.92 397.97 107.25 399.06 106.82 400.11 106.73 401.14 105.93 402.79 105.36 405.75 105.18 406.59 104.77 407.8 104.75 408.38 104.53 410.55 104.53 411.52 105.01 413.44 104.6 414.38 104.11 415.36 104.47 416.86 104.3 417.53 104.61 419.01 104.44 420.26 103.86 421.48 103.54 422.6 103.84 422.59 104.22 423.43 104.56 424.5 104.14 424.66 104.57 423.33 105.8 423.48 106.76 424.39 107.32 424.65 108.2 423.35 109.74 422.61 110.18 422.28 110.82 422.52 111.28 423.77 112.02 424.57 111.91 424.83 112.61 425.5 112.76 427.22 113.48 428.27 113.6 429.45 113.35 431.56 113.87 432.17 114.25 433.64 114.51 434.05 115.03 434.35 116.14 434.81 116.65 435.74 117.01 437.2 117.12 438.46 117.42 440.32 118.09 441.98 119.17 442.76 119.17 443.7 118.73 444.67 117.42 444.17 115.78 444.6 114.89 445.71 114.09 447.96 113.3 449.18 113.34 451.18 114.01 451.62 114.91 452.75 115.03 453.49 115.36 454.72 115.34 455.47 115.64 455.75 116.14 456.26 116.46 457.4 116.22 460.4 116.76 461.99 117.38 463.21 117.48 464.44 117.97 465.59 117.57 467.38 116.58 468.05 116.7 469.15 116.29 471.16 117.39 471.65 117.03 472.27 117.44 473.44 117.22 474.63 117.31 475.81 116.88 476.42 116.3 476.87 115.61 477.82 112.98 478.94 110.87 479.02 110.4 479.75 109.55 479.67 108.23 479.28 107.46 479.56 106.7 479.38 105.83 480.22 105.05 479.91 104.49 478.77 105.19 476.7 104.77 475.42 105.76 474.69 106.11 472.7 106.43 471.77 106.11 470.98 105.33 469.5 104.74 467.93 104.59 467.57 105.82 465.81 106.17 464.6 105.63 464.37 104.98 463.14 104.73 462.36 104.23 460.62 104.25 461 103.74 460.34 103.43 460.02 102.77 460.37 102.13 459.15 101.64 459.54 101.25 459.33 100.51 459.88 100.11 459.14 99.21 459.47 98.61 457.88 98.83 458.04 97.67 459.27 96.76 460.48 96.64 460.9 96.94 462.71 96.75 463.81 96.46 465.09 95.85 464.38 95.41 465 94.92 466.32 95.09 467.26 94.99 468.3 95.24 469.28 95.19 469.73 94.72 471.61 93.81 474 93.17 477.03 93.31 477.6 93.07 478.24 93.81 478.82 94.02 479.91 93.92 480.2 94.48 480.93 94.85 481.52 94.62 482.16 95.02 485.08 95.6 487.4 95.19 489.25 95.51 490.79 94.96 492.01 94.28 492.57 93.28 491.97 91.75 490.52 90.86 489.83 90.73 488.62 90.07 485.82 88.14 484.64 87.85 483.9 87.23 482.93 87.15 481.89 85.92 483.45 85.73 483.37 85.31 484.09 84.34 484.64 84.14 484.16 82.98 487.1 81.89 485.31 81.74 484.71 81.93 483.22 81.96 482.77 82.31 480.42 82.89 479.42 82.96 477.25 83.92 477.59 84.94 478.41 85.78 480.18 85.56 481.07 85.69 480.67 86.42 479.51 86.55 478.63 86.34 477.78 87 476.96 86.99 475.17 87.92 474.15 87.55 474.38 86.35 472.97 85.79 472.06 85.67 474.62 84.46 474.47 84.13 473.6 83.96 471.99 84.16 471.01 83.77 470.88 82.77 468.27 83.12 467.63 84.11 466.99 84.64 465.62 85.05 465.85 85.99 465.52 86.91 464.39 87.1 463.5 88.12 463.36 89.35 463.1 90.13 462.36 90.12 461.91 90.58 461.82 91.55 460.92 92.17 462.1 93.28 462.83 94.4 464.41 94.92 463.8 95.49 462.45 95.25 460.96 95.49 460.42 96.12 457.87 96.29 457.72 96.03 457.31 95.77 455.65 95.44 454.96 95.75 454.05 95.62 452.93 96.44 452.46 97.15 451.68 97.17 450.16 96.55 450.08 97.56 450.8 98.47 450.91 99.79 450.48 100.3 451.54 100.61 452.5 101.3 453.13 101.47 453.32 102.72 452.27 102.06 451.41 102.17 451.34 103.56 450.46 103.42 451.15 104.79 450.12 104.78 449.85 105.25 448.95 104.23 448.53 104.88 447.84 104.12 447.82 103.1 446.87 102.26 447.44 101.64 448.38 101.35 450.54 102.12 451.25 101.92 449.7 101.11 447.6 101.37 446.8 101.23 446.06 100.29 446.06 99.84 445 99.14 444.34 98.29 444 97.55 443 97.01 442.88 96.27 443.14 95.58 443.09 94.49 443.4 93.68 442.88 93.5 441.88 92.66 441.05 92.25 439.16 91.22 438.98 91.13 437.47 90.13 435.34 89.54 434.36 88.98 433.52 88.21 433.85 87.93 433.02 87.21 432.93 86.38 431.89 85.8 430.96 86.93 430.21 86.32 430.1 85.42 430.41 85.26 429.27 84.85 428.88 85.15 427.21 85.57 427.1 86.03 427.76 86.63 427.15 87.18 427.48 88.28 428.13 88.79 430.07 89.73 431.06 91.68 432.95 93.1 433.62 93.36 435.39 93.35 435.49 94.46 437.91 95.29 439.8 96.19 440.63 96.82 440.98 97.41 440.07 97.79 439.6 97.02 437.52 96.63 436.64 97.96 436.79 98.45 437.94 99.02 438.07 99.87 436.71 100.49 436.68 101.17 435.59 102.21 434.86 102.21 435.41 100.5 435.9 100.4 435.52 99.08 434.79 97.67 433.14 97.12 432.73 96.16 432.05 96.24 431.26 95.81 430.44 94.91 429.01 94.89 428 94.39 425.8 92.58 424.76 92.03 423.74 91.14 422.27 88.73 420.59 88.07 419.43 87.84 417.91 88.96 416.61 89.3 Z M 509.13 83.6 506.75 84.93 505.35 85.23 504.44 86.77 503.64 87.32 503.64 87.85 504.69 88.35 505.31 89.87 505.21 90.92 507.67 93.56 508.85 94.76 509.12 95.37 510.34 96.35 511.51 96.73 509.84 97.22 509.34 98.51 509.42 99.09 508.65 99.57 508.29 100.27 508.33 101.11 508.8 102.82 509.66 103.19 511.12 103.39 512.02 104.27 513.31 104.87 514.74 105.15 515.69 105.13 518.31 104.59 519.74 104.4 519.51 103.53 519.31 102.24 519.41 99.97 518.85 99.38 517.76 98.9 518.53 98.38 518.38 97.73 517.46 97.67 516.89 96.76 517.36 95.34 517.81 95.82 518.85 95.83 519.41 96.21 521.27 95.67 521.01 95 519.91 94.28 519.36 93.01 517.85 93 517.42 93.27 517.11 94.67 516.36 93.7 516.29 92.99 516.64 92.26 516.59 91.53 514.92 91.19 514.42 90.64 513.7 90.61 513.72 89.93 512.67 88.35 511.57 88.06 511.74 87.4 512.74 87.39 513.14 86.61 513.97 85.77 516.44 85.68 516.98 85.29 517.78 83.92 517.86 82.86 517.3 82.23 516.34 82.15 515.69 82.48 513.44 81.89 511.76 82.4 510.83 82.94 509.39 83.2 509.13 83.6 Z M 479.45 112.24 479.39 112.36 479.51 112.21 479.45 112.24 Z M 523.68 233.61 522.72 233.47 522.61 232.65 523.38 232.65 523.68 233.61 Z M 1.45 33.49 3.5 33.91 6.75 35.04 11.32 36.29 12.59 38.27 13.31 37.57 15.01 37.47 17.31 37.96 19.19 37.95 20.15 38.51 22.74 39.57 21.69 40.85 18.26 41.29 18.26 42.12 16.69 42.88 17.65 43.24 16.5 43.79 14.9 43.64 13.6 43.03 11.21 42.67 10.19 42.21 9.66 41.19 7.53 40.87 4.75 41.15 3.48 40.15 1.85 39.73 1.6 40.45 2.44 41.08 1 42.08 1 41.54 1 40.99 1 40.45 1 39.91 1 39.37 1 38.82 1 38.28 1 37.74 1 37.2 1 36.65 1 36.11 1 35.57 1 35.03 1 34.48 1 33.94 1.45 33.49 Z M 511.45 6.92 514.61 7.45 508.39 8.16 505.59 8.73 503.4 8.31 509.03 7.74 511.45 6.92 Z M 550.21 17.32 546.93 17.88 536.01 19.36 533.49 20.51 529.75 21.17 529.55 21.99 526.27 23.68 525.09 23.84 521.93 23.49 520.36 23.72 519.17 22.8 521.12 22.37 523.21 20.89 525.24 20.16 526.54 19.21 530.52 18.17 535.34 17.58 535.66 17.22 539.59 17.32 546 16.49 549.7 15.61 551.81 15.78 552.73 16.58 550.21 17.32 Z M 522.63 23.81 525.09 24.05 524.32 24.96 522.71 25.68 522.58 26.86 524.23 28.16 526.12 29.09 526.67 29.84 521.03 29.64 519.08 29.34 518.29 27.73 514.85 27.84 514.02 27.21 514.34 26.55 516.65 26.05 519.15 23.85 522.63 23.81 Z M 613.97 6.59 616.86 7.21 615.07 7.79 615.41 8.44 608.08 8.96 602.88 8.18 606.73 7.23 606.29 6.79 612.36 6.14 613.97 6.59 Z M 616.51 8.63 620.1 8.94 621.8 9.47 620.42 11.56 616.25 11.58 609.81 10.91 608.85 10.3 606.31 10.1 610.56 8.76 616.51 8.63 Z M 628.06 10.63 633.07 11.6 633.44 12.3 629.91 12.84 624.34 12.99 621.85 13.47 622.3 11.91 625.19 10.42 628.06 10.63 Z M 710.44 18.23 712.43 18.51 713.63 17.54 715.79 18.06 718.5 18.15 721.98 18.76 721.16 19.47 719.24 19.96 715.4 20.4 714.74 20.08 708.34 20.82 706.1 20.51 703.7 19.54 704.79 18.05 707.7 17.4 710.44 18.23 Z M 725.4 19.24 732.73 19.58 733.93 20.19 731.61 20.57 728.27 20.45 723.96 19.62 725.4 19.24 Z M 796.48 29.31 796.54 28.42 799 27.74 799 28.94 796.48 29.31 Z M 716.45 65.74 716.93 66.3 716.8 67.07 717.48 68.17 717.7 69.69 717.33 70.86 717.99 72.22 718.79 74.85 719.8 77.01 717.22 77.26 716.04 79.75 716 80.49 717 81.64 717.61 83.11 716.05 82.79 715.23 84.15 714.68 84.32 714.39 83.35 714.85 81.82 714.69 80.83 715.17 79.88 714.47 78.25 715.08 76.43 714.92 74.34 715.22 72.77 714.15 71.63 714.01 70.44 714.33 69.81 714.38 68.08 715.93 67.84 716.25 66.68 715.51 65.99 716.45 65.74 Z M 3.49 27.65 6.47 28.35 5.83 28.78 2.09 29.1 1 28.94 1 27.74 3.49 27.65 Z M 511.42 32.95 510 33.67 507.88 33.95 507.02 33.27 507.8 32.4 509.12 32.23 511.42 32.95 Z M 537.81 7.13 535.33 8.05 531.46 7.82 532.1 7.17 537.81 7.13 Z M 521.29 6.51 527.89 7.22 523.5 7.57 519.85 7.18 521.29 6.51 Z M 715.18 22.51 717.75 23.24 717.41 24.01 713.87 23.81 711.8 23.49 712.74 22.58 715.18 22.51 Z M 775.06 32.08 771.93 31.51 773.19 31.11 775.45 31.41 775.06 32.08 Z M 762.72 56.41 763 55.5 764.93 55.28 764.9 55.78 762.72 56.41 Z M 745.63 74.81 744.12 75.27 744.07 74.82 745.63 74.81 Z M 729.4 85.86 727.88 86.58 727.56 86.14 729.4 85.86 Z M 651.34 21.39 650 22.07 647.48 21.67 648.45 21.06 651.34 21.39 Z M 556.66 24.29 555.16 23.7 557.25 23.36 558.77 24.11 556.66 24.29 Z M 534 31.29 532.07 31.73 530.68 31.38 529.62 30.55 530.79 30.11 534 31.29 Z M 450.14 56.37 451.63 56.67 449.11 57.49 448.95 56.69 450.14 56.37 Z M 442.68 31 443.43 31.21 441.64 32.08 440.67 31.66 442.68 31 Z M 438.8 32.04 439.91 32.24 439.79 32.92 437.62 33.06 438.8 32.04 Z M 447.9 12.09 451.24 13.43 453.73 13.64 452.85 14.53 450.54 15.02 448.89 14.52 447.9 13.6 444.84 12.35 447.9 12.09 Z M 446.32 8.43 449.77 8.09 459.54 8.62 460.29 9.19 456.84 10.3 453.08 10.77 446.24 10.31 441.51 9.51 440.66 8.85 445.13 8.09 446.32 8.43 Z M 437.21 9.19 441.19 9.93 442.32 10.85 445.35 10.91 447.41 11.77 443.82 12.03 440.87 13.36 440.41 14.47 439.07 14.74 437.02 16.56 431.84 15.11 431.04 14.64 433.07 14.1 430.33 13.35 433.24 13.08 432.45 12.49 429.15 12.89 426.1 11.82 426.7 11.23 424.84 10.91 424.09 9.43 428.27 9.48 429.67 10.13 435.06 9.68 437.21 9.19 Z M 442.29 58.11 441.7 58.4 441.45 59.42 440.53 59.78 440.2 58.73 441.09 58.12 442.29 58.11 Z M 406.97 98.11 407.67 98.32 406.81 99.19 405.26 98.5 406.17 97.97 406.97 98.11 Z M 363.79 123.4 363.07 124.23 362.53 123.49 363.79 123.4 Z M 368.53 123.87 368.96 122.68 369.35 122.95 369.13 123.68 368.53 123.87 Z M 365.86 123.92 365.89 124.52 365.18 124.72 365.24 123.9 365.86 123.92 Z M 427.86 62.66 427.08 63.36 426.71 64.81 425.83 63.98 425.02 63.94 424.34 62.8 425.44 62.3 427.09 61.92 427.86 62.66 Z M 423.6 63.04 423.91 64.1 422.14 64.03 421.86 63.25 423.6 63.04 Z M 386.22 66.42 386.64 68.99 386.22 69.84 385.46 70.63 383.31 70.83 383.01 71.09 380.46 71.97 379.39 72.16 378.76 71.73 376.99 71.34 377.93 70.74 378.04 70.15 378.75 69.81 379.39 68.61 378.29 67.95 377.84 66 380.89 65.84 380.57 65.1 381.43 64.64 381.66 64.07 383.94 63.61 384 64.19 386.41 63.91 387.87 65.5 387.57 66.01 386.22 66.42 Z M 394.09 71.88 392.7 72.4 392.1 72.35 390.28 71.62 389.13 71.87 388.72 71.05 390.28 70.61 391.18 69.84 390.89 68.34 393.21 67.88 393.52 67.2 392.98 66.33 392.09 65.58 392.39 64.48 391.23 64.88 389.99 64.93 388.62 64.71 389.53 63.46 388.37 62.34 387.57 62.06 388.05 61.04 386.84 60.84 387.67 59.45 387.1 59 388.17 57.22 389.55 56.62 393.23 56.34 392.88 57.03 391.16 57.84 391.43 58.63 392.46 58.39 395.4 58.41 396.06 58.87 394.12 61.47 392.95 62 395.24 62.39 396.33 63.13 397.14 64.9 398.51 65.5 399.81 66.35 399.54 66.56 400.79 68.47 401.24 68.9 402.34 68.92 403.67 69.38 403.87 70.01 403.46 70.85 402.12 71.47 401.52 72.41 403.14 72.46 403.1 72.86 402.13 73.43 400.45 73.79 398.26 73.78 397.15 73.58 396.64 73.82 394.35 74.11 393.35 73.89 392.45 74.08 391.59 74.97 390.75 74.61 388.16 74.93 389.84 73.76 390.72 72.84 393.05 72.81 394.09 71.88 Z M 386.26 56.94 385.76 57.7 384.78 57.89 384.29 57.34 386.26 56.94 Z M 451.9 99.95 453.42 100.59 452.67 101.19 451.54 100.3 451.9 99.95 Z M 458.54 99.13 458.67 99.92 457.43 99.55 458 99.03 458.54 99.13 Z M 452.87 107.54 453.57 107.41 453.89 107.92 454.8 107.79 456.47 108.05 457.07 108.41 454.97 108.87 454.23 108.37 452.23 108.07 452.87 107.54 Z M 434.53 101.59 433.77 102.56 433.47 103.28 433.9 104.27 433.5 104.99 432.15 104.74 431.35 104.07 430.82 104.07 427.57 102.48 428.23 101.67 428.6 102 429.6 101.68 430.33 102.08 432.15 101.98 432.91 101.7 434.53 101.59 Z M 421.35 95.69 421.74 96.54 421.2 99.49 420.07 99.33 419.69 100.06 419.17 100.03 418.66 99.41 418.78 97 418.15 96.2 420.58 94.98 421.35 95.69 Z M 365.55 39.51 367.33 39.9 367.29 40.55 369.82 41.15 369.92 42.08 367.75 43.46 364.4 44.2 363.11 44.74 360.51 45.08 360.22 45.47 358.65 45.76 355.23 45.43 352.9 44.59 349.89 44.81 351.6 43.99 351.34 43.3 349.72 42.17 351.22 41.14 349.23 40.94 347.02 41.33 346.3 41.15 347.85 39.65 350.29 39.06 352.78 40.29 352.94 41.3 354.88 40.64 354.88 39.94 358.38 39.64 362.87 39.72 363.33 39.02 364.57 38.87 365.55 39.51 Z M 616.08 183.06 617.08 184.15 616.96 184.92 615.92 184.21 615.56 183.16 616.08 183.06 Z M 619.81 190.25 619.17 190 618.57 188.97 619.16 188.34 620.04 189.92 619.81 190.25 Z M 658.55 205.41 657.97 206.11 657.3 205.7 657.27 205.02 658.02 204.5 658.76 204.9 658.55 205.41 Z M 655.91 204.39 656.48 204.95 655.66 205.41 655.44 205.81 654.57 205 654.06 204.88 653.75 204.31 655.91 204.39 Z M 635.07 190.01 635.78 191.78 636.47 192.31 636.18 193.09 634.96 192.57 634.49 191.15 633.05 190.84 634.05 189.7 634.77 189.65 635.07 190.01 Z M 673.05 196.4 672.77 196.84 672.62 198.27 672.23 198.88 671.73 198.6 672.13 197.86 672.32 196.55 673.05 196.4 Z M 671.86 197.99 671.31 197.55 671.25 196.88 671.99 196.55 672.12 197.25 671.86 197.99 Z M 640.1 178.13 639.41 177.35 639.85 177 640.27 177.48 640.1 178.13 Z M 639.86 192.96 638.55 193.43 638.66 192 639.57 192.07 640.04 192.59 639.86 192.96 Z M 700.1 187.76 701.23 187.92 702.09 188.67 701.71 189.01 701.11 188.79 700.1 187.76 Z M 700.3 189.84 701.91 189.98 701.89 190.43 700.3 189.84 Z M 689.97 186.32 691 186.64 690.6 187.04 689.69 186.97 689.97 186.32 Z M 684.74 181.76 684.22 181.22 685.07 180.55 685.11 181.38 684.74 181.76 Z M 684.07 189.99 682.76 190.14 682.53 189.53 683.16 189.33 684.07 189.99 Z M 677.02 190.09 676.72 190.51 675.79 190.76 675.71 190.05 677.02 190.09 Z M 691.11 204.04 690.58 203.75 690.96 202.87 691.63 202.13 691.92 202.8 691.11 204.04 Z M 681.08 203.31 680.35 203.94 678.95 203.64 680.65 203.1 681.08 203.31 Z M 676.14 204.36 677.36 204.5 677.3 204.83 675.85 205.03 676.14 204.36 Z M 690.39 189.23 689.9 189.1 689.66 188.44 690.55 188.46 690.39 189.23 Z M 613.89 174.72 614.67 174.62 616.23 174.77 617.03 175.5 617.78 176.53 617.91 177.24 618.96 177.98 619.79 178.37 621.07 179.26 622.68 181.31 623.19 181.61 623.99 181.31 624.94 182.56 625.62 182.72 626.45 183.52 626.63 184.12 627.14 184.59 627.98 184.73 628.46 185.22 629.38 185.25 630.06 186.21 629.27 186.74 629.27 187.5 629.92 188.28 631.33 188.61 631.79 190.57 632.41 190.95 632.02 191.6 633.63 191.59 634.04 191.84 635.06 193.2 634.62 194.32 634.81 194.92 634.59 195.54 634.72 197.42 634.56 198.9 634.12 199.17 633.52 198.61 632.93 199.05 631.95 198.55 631.87 199.4 630.68 198.25 630.16 197.57 628.14 196.22 627.29 195.52 626.38 194.29 625.17 193.33 624.56 192.36 624.15 192.05 623.55 191.06 623.56 190.6 622.75 189.19 622.35 188.14 621.36 187.01 620.77 186.09 619.8 185.53 619 183 618.48 182.1 616.57 181.08 616.33 180 615.88 179.72 614.95 178.39 613.79 177.85 611.68 175.76 611.04 174.6 611.46 173.84 612.45 174.09 613.1 174.58 613.89 174.72 Z M 672.17 205.4 670.64 205.7 669.66 206.04 668.29 206.12 667.22 205.82 665.57 205.59 665.82 205.03 666.51 204.69 667.35 204.58 669.2 205.33 670.36 205.05 671.02 205.43 671.77 204.94 672.17 205.4 Z M 666.03 207.09 666.65 207.7 667.12 207.76 667.85 208.56 666.97 209.13 666.32 208.92 665.12 207.98 663.97 207.83 664.19 207.11 666.03 207.09 Z M 662.1 204.75 663.76 204.79 663.8 205.71 661.99 205.91 659.49 206.48 658.88 206.28 658.98 205.23 659.72 204.86 660.61 204.99 661.14 205.62 662.09 205.36 661.16 204.8 661.83 204.32 662.1 204.75 Z M 676.84 184.11 675.81 185.27 674.32 185.64 673.24 185.59 672.83 185.24 670.08 185.34 669.16 185.22 668.25 185.33 667.55 185.17 666.77 185.32 666.28 185.94 666.03 186.75 666.22 187.75 667.15 188.62 667.48 189.35 668.29 189.43 669.37 188.21 670.37 188.38 671.05 187.99 672.4 187.99 673.03 187.58 673.49 187.75 673.49 188.54 672.76 188.25 672.22 188.45 671.56 189.3 669.81 190.44 668.99 190.63 670.1 191.48 670.62 192.41 671.08 192.76 671.32 193.41 670.99 194.34 672.38 195.42 672.42 195.95 670.89 196.28 670.25 197.06 669.52 196.86 669.3 196.47 669.59 195.38 668.91 195 668.03 194.19 668.34 193.33 668.33 192.41 667.45 192.23 666.56 193.08 666.97 194.53 666.8 195.37 666.93 196.55 666.62 197.72 666.69 198.6 665.37 198.93 664.62 198.34 665.14 196.12 665.17 195.26 664.71 194.02 663.77 194.15 663.37 193.31 663.3 192.44 663.99 191.82 664.5 190.59 664.47 189.43 664.91 188.32 665.49 187.38 665.38 186.51 665.58 185.78 666.6 184.16 667.15 184.5 668.02 183.46 669.19 183.62 669.53 183.95 671.4 184.06 672.41 184.43 673.27 184.26 674.53 184.45 675.47 184.05 677.06 182.54 677.6 182.98 676.84 184.11 Z M 638.01 199.63 638.66 200.09 640.05 200.2 640.9 201.36 644.78 201.71 645.47 200.66 645.99 200.58 646.39 201.1 647.25 201.05 648.46 201.59 649.46 201.67 650.03 203.05 651.03 203.42 652.86 203.23 653.68 203.81 653.56 204.94 653.99 205.75 652.02 205.11 651.04 204.68 649.77 204.95 648.52 204.76 647.18 204.72 645.18 204.38 643.92 203.8 642.24 203.39 641.04 203.31 640.4 203.6 639.22 203.43 637.82 202.87 636.37 202.75 636.12 201.95 634.84 201.52 633.82 201.34 634.67 199.87 635.13 199.42 636.8 199.83 637.29 199.4 638.01 199.63 Z M 660.62 177.07 660.96 177.9 660.75 178.25 659.72 178.35 660.7 179.52 661.71 181.17 661.27 181.95 661.74 182.54 662.98 183.39 663.75 184.14 662.75 184.51 662 184.37 661 184.7 660.51 185.79 660.38 187.03 660.6 188.02 659.88 188.36 659.36 188.95 658.36 189.58 658.07 190.86 658.39 191.41 657.97 192.03 657.87 192.75 657.04 194.28 654.24 195.56 653.89 194.06 652.88 193.58 652.25 193.97 651.65 193.37 650.42 193.38 649.6 193.85 648.9 193.67 647.87 194.14 647.87 193.09 646.86 192.82 646.15 193.09 645.11 192.72 644.35 192.8 644 190.63 643.74 190.44 643.88 189.41 643.36 188.55 642.62 188.24 641.97 187.41 642.19 186.24 641.49 185.52 641.41 184.55 641.78 183 642.46 182.05 643.01 181.82 643.8 182.51 644.61 182.5 645.92 182.95 646.39 182.46 646.64 181.57 646.59 180.91 647.66 179.99 649.9 179.51 650.58 179.21 651.47 178.02 652.53 176.91 652.84 176.13 653.36 176.1 654.91 175.18 654.98 175.45 655.23 175.45 656.07 175.12 655.85 174.31 656.68 174.04 657.44 172.73 658.23 171.86 658.8 170.85 659.16 171.55 659.63 170.86 660 171.51 660.78 171.96 660.72 173.14 661.58 172.89 661.82 173.32 662.58 173.54 662.89 173.92 664.28 174.31 664.08 175.01 663.06 175.31 662.41 175.19 661.98 175.61 662.81 176.33 662.67 176.64 661.58 176.89 660.99 176.7 660.62 177.07 Z M 683.14 184.43 684.09 183.75 684.67 182.95 685.26 182.83 685.29 183.86 684.4 184.37 685.27 185.51 683.7 185.27 683.48 185.65 683.84 187.88 683.05 186.85 683.09 185.67 682.75 185.23 682.45 183.54 682.92 182.23 683.76 182.54 683.76 183.36 682.96 184.07 683.14 184.43 Z M 687.62 192.67 689.01 192.94 689.43 193.25 690.07 194.23 689.95 194.86 688.21 194.01 687.82 193.69 686.99 193.97 685.88 193.69 684.66 193.88 683.92 193.37 684.17 192.67 686.9 192.5 687.62 192.67 Z M 681.21 193.16 682.02 193.83 682.03 194.37 680.82 194.79 679.78 194.3 679.36 193.34 680.53 193.11 681.21 193.16 Z M 677.23 207.4 675.81 208.81 674.55 209.24 673.96 208.41 674.22 207.63 674.95 207.02 675.85 206.68 676.91 206.14 677.48 205.48 678.87 205.14 680.67 205.06 681.44 204.75 682.17 204.99 681.33 205.63 680.15 206.17 677.99 206.87 677.23 207.4 Z M 698.69 198.96 698.71 199.99 698.01 200.35 697.7 199.63 697.79 198.98 698.4 198.37 698.69 198.96 Z M 698.22 200.59 697.82 201.42 697.16 201.32 697.41 200 698.22 200.59 Z M 707.09 204.65 706.56 204.94 705.62 204.89 705.2 204.63 705.92 203.25 706.56 202.8 707.61 202.69 708.09 203.37 707.64 204.18 707.09 204.65 Z M 628.38 184.66 627.3 184.47 627.32 183.81 628.38 184.66 Z M 631.83 183.62 631.81 184.47 631.09 184.06 631.83 183.62 Z M 652.36 202.06 651.53 202.31 649.96 202.14 650.19 201.61 652.64 201.55 652.36 202.06 Z M 688.95 190.06 688.72 190.85 687.92 190.72 688.15 190.21 688.95 190.06 Z M 613.83 181.08 612.38 180.43 612.37 179.85 613.73 180.74 613.83 181.08 Z M 674.7 204.65 673.56 205.35 673.37 205.02 674.37 204.47 674.7 204.65 Z M 475.38 108.58 473.02 109.67 471.93 109.33 471.64 108.83 472.51 108.35 473.02 107.86 475.24 108.08 475.38 108.58 Z M 605.54 160.74 605.12 159.99 605.47 159.24 605.83 156.7 606.31 156.94 605.9 157.62 606.13 158.52 605.59 159.73 605.54 160.74 Z M 645.8 142 646.08 142.74 645.66 142.96 645.1 143.81 644.83 144.75 642.77 145.93 640.96 145.23 640.81 144.4 640.94 143.45 642.01 142.7 642.1 142.33 643.06 142.01 644.21 141.86 645.8 142 Z M 680.02 112.67 680.05 112.14 680.84 111.94 681.23 112.41 680.02 112.67 Z M 519.18 158.3 520.12 158.24 519.99 158.91 518.81 158.95 519.18 158.3 Z M 668.44 145.05 670.09 145.76 671.1 145.52 670.77 146.95 670.96 147.67 671.58 148.35 670.73 150.44 669.54 150.99 669.56 151.58 669.09 152.34 669.76 153.64 669.65 154.21 669.99 155.03 670.88 154.95 671.52 154.56 672.33 154.72 673.16 155.84 673.61 155.35 674.26 155.54 674 156.33 675.18 157.42 675 158.46 674.04 157.69 673.34 157.4 673.01 156.52 671.75 155.48 671.34 156.4 669.94 155.42 668.67 156.08 667.86 155.53 667.37 154.86 668.04 154.19 667.97 153.69 666.18 153.39 665.76 151.21 665.49 150.83 665.62 150.12 666.35 150.74 666.86 150.35 666.68 149.67 666.91 148.73 666.79 147.21 667.33 145.29 668.44 145.05 Z M 660.04 167.6 660.13 167 661.31 165.83 661.82 165.59 663.84 163.36 664.42 162.87 664.36 162.27 664.95 162.03 665.3 162.92 664.41 163.59 664.21 164.01 663.3 164.33 663.28 164.66 662.53 165.8 661.86 166.14 661.54 166.63 660.04 167.6 Z M 671.53 160.57 673 160.74 672.69 161.67 672.14 162.32 670.87 162.76 670.35 162.21 670.66 160.5 671.53 160.57 Z M 672.94 166.22 671.68 165.29 671.34 164.82 671.48 164.23 672.33 163.95 672.24 163.03 672.61 162.18 673.22 161.94 673.91 162.42 673.01 164.45 672.98 165.02 673.33 165.57 672.94 166.22 Z M 676.14 161.17 676.93 161.1 677.11 162.4 677.64 163.56 677.14 164.07 676.6 163.77 676.61 162.41 675.85 162.1 676.14 161.17 Z M 677.61 158.54 678.27 159.29 678.1 159.82 678.48 161.64 677.6 161.61 677.16 161.17 676.83 160.21 675.72 159.17 675.52 158.45 677.61 158.54 Z M 667.56 156.43 668.67 156.54 669.38 157.21 669.42 158.3 668.74 159.23 668.04 158.58 667.69 157.56 667.13 156.92 667.56 156.43 Z M 679.31 165.65 679.73 165.75 680.01 166.71 679.61 167.19 680.11 167.51 680.27 168.95 680.56 169.29 680.59 170.25 680.27 170.77 679.48 171.39 678.91 170.06 677.97 171.25 678.39 171.98 678.56 173.06 678.09 173.76 676.28 173.02 675.04 172.12 674.83 170.81 675.32 169.92 674.8 169.32 673.74 169 673.52 169.89 671.54 169.3 670.82 170.79 670.54 169.99 670.73 169 671.18 168.52 672.45 168.23 672.69 167.7 673.61 167.02 674.53 167.62 674.6 168.16 675.37 167.98 675.87 167.24 676.49 167.33 676.79 166.42 678.27 166.05 678 164.88 678.24 164.68 679.31 165.65 Z M 673.47 165.37 673.51 164.22 674.23 163.1 674.76 163.44 674.08 164.1 673.47 165.37 Z M 676.18 164.62 675.66 164.97 674.72 164.98 674.46 164.55 675.25 163.85 676.15 164.09 676.18 164.62 Z M 674.24 159.08 674.96 159.79 674.83 160.11 673.58 159.28 674.24 159.08 Z M 675.65 156.09 674.95 156.03 675.37 155.11 675.79 155.57 675.65 156.09 Z M 577.29 164.56 577.89 164.6 578.91 165.55 580.38 167.62 580.52 168.32 581.03 169.06 581.49 170.16 581.46 171.01 580.96 172.07 580.39 172.48 578.94 173.06 577.93 172.99 577.54 172.67 577.02 171.17 576.87 169.5 576.91 168.47 577.18 166.59 577.6 165.64 577.29 164.56 Z M 668.24 136.17 667.53 137.47 667.29 136.76 666.72 136.34 666.16 135 666.35 133.76 667.4 132.05 668.31 130.82 669.53 130.29 670.28 130.95 669.63 132.82 669.27 134.39 668.87 135.4 668.24 136.17 Z M 718.81 88.52 720.97 88.91 721.64 89.3 722.19 90.6 720.6 91.11 719.13 91.26 717.94 92.28 717.51 93.21 715.89 92.64 714.44 91.93 713.45 92 712.52 92.45 711.91 91.98 711.03 92.47 712.88 93.64 711.8 93.62 711.19 94.28 710.32 94.15 710.57 93.41 709.94 92.35 710.09 91.77 710.83 91.45 712.06 90.52 713.21 90.55 713.43 89.57 713.98 88.74 714.28 87.19 713.84 86.22 714.63 85.43 716.33 86.96 717.62 87.9 718.81 88.52 Z M 690.77 111.83 691.68 111.72 692.37 112.6 692.55 113.51 692.01 114.07 691.13 116.7 690.6 117.03 689.47 117.2 688.61 116.95 688.88 116.26 688.6 115.18 689.59 114.01 689.01 112.96 688.55 113.49 687.24 112.64 687.41 112.35 688.98 111.76 689.24 111.31 690.28 111.23 690.77 111.83 Z M 697.83 110.38 698.45 110.44 698.67 111.34 697.87 111.81 697.44 112.61 696.94 112.17 696.22 112.03 695.45 112.36 694.77 113.51 693.7 113.35 693.73 112.51 693.41 112.03 694.03 111.63 694.34 110.96 695.11 111.11 696.11 110.91 696.38 110.42 697.2 110.15 697.83 110.38 Z M 713.06 94.6 713.44 95.22 713.58 96.29 714.32 97 714.72 97.99 714.55 99.62 714.01 99.92 713.59 101.18 712.79 101.33 712.39 102.19 712.63 103.26 712.48 104.29 711.72 105.4 711.71 106.38 712.27 107.12 711.35 107.6 711.26 108.14 709.89 108.82 709.56 107.82 708.67 108.11 708.08 109.4 707.18 108.54 706.32 109.62 704.89 109.47 703.43 109.16 702.65 109.44 703.36 110.23 702.2 110.55 701.28 111.92 700.25 111.94 699.64 111.17 699.47 110.31 700.1 109.84 698.67 109.25 697.5 109.4 696.96 109.78 695.13 110.28 693.13 110.44 692.8 111.27 692.02 110.83 690.2 111 690.39 110.08 691.17 110.03 692.28 109.34 694.65 107.6 695.65 107.71 697.51 107.53 699.64 107.07 699.97 107.56 700.76 107.61 701.68 107.03 701.48 106.53 703.01 104.87 704.44 104.8 704.82 104.4 706.61 103.81 707.86 102.43 709.01 101.76 709.89 100.12 710.44 98.83 710.13 97.6 710.37 96.95 710.16 96.32 710.96 95.77 712.81 95.69 713.06 94.6 Z M 419.36 177.98 419.83 178.27 419.29 179.17 418.79 179.08 419.36 177.98 Z M 509.81 213.87 510.69 215.29 511.22 217.44 511.36 218.97 511.9 220.42 511.3 221.69 510.88 221.34 510.6 220.58 510.06 220.82 510.2 221.95 510.46 222.35 510.32 223.59 509.81 224.07 509.59 224.76 509.68 225.99 508.75 228.69 507.75 231.66 507.18 233.64 506.2 236.11 505.42 239.23 504.58 241.26 503.58 242.06 502.32 242.24 500.88 242.98 500.01 242.93 499.34 242.47 498.3 242.23 497.61 241.72 496.84 240.31 496.75 238.94 496.92 238.47 496.58 237.47 496.2 237.04 495.9 235.93 495.91 235.19 496.43 233.65 497.09 233.26 497.34 232.57 498.06 231.49 498.43 230.47 498.53 229.38 498.06 228.6 498.05 227.85 497.62 226.85 497.49 224.86 498.47 223.34 498.59 222.26 499.55 222.17 500.12 221.74 501.08 221.76 501.3 221.37 502.7 221.14 503.02 220.7 505.98 218.55 505.9 218.17 506.39 217.26 508.17 215.72 508.42 214.99 508.39 213.93 509.08 213.09 509.81 213.87 Z"/>&#xa;</g>&#xa;</svg>